<svg width="78" height="78" viewBox="0 0 78 78" fill="none" xmlns="http://www.w3.org/2000/svg">
<rect x="-5.96046e-08" y="-0.707107" width="53" height="53" transform="matrix(0.707107 -0.707107 -0.707107 -0.707107 38.5 76.0976)" stroke="#ED6726"/>
<path d="M44.8159 40.0542C44.8159 39.9548 44.7765 39.8592 44.706 39.7891L44.5962 39.6792L44.706 39.5693C44.7765 39.4992 44.8159 39.4036 44.8159 39.3042V37.9594L49.206 33.5693L48.6758 33.0391L46.3159 35.3989L42.7212 31.8042L45.081 29.4443L44.5508 28.9141L40.1607 33.3042H38.8159C38.7165 33.3042 38.6209 33.3436 38.5508 33.4141L38.4409 33.5239L38.331 33.4141L38.1889 33.2719L36.831 31.9141C36.7609 31.8436 36.6653 31.8042 36.5659 31.8042H35.9712L33.081 28.9141L32.5508 29.4443L33.4107 30.3042L29.8159 33.8989L28.956 33.0391L28.4258 33.5693L31.3159 36.4594V38.5542C31.3159 38.6536 31.3553 38.7492 31.4258 38.8193L32.4409 39.8344V41.0239L28.4258 45.0391L28.956 45.5693L30.9409 43.5844L34.5357 47.1792L32.5508 49.1641L33.081 49.6943L37.0962 45.6792H38.4409C38.5403 45.6792 38.6359 45.6398 38.706 45.5693L38.9712 45.3042H40.1607L44.5508 49.6943L45.081 49.1641L42.7212 46.8042L46.3159 43.2094L48.6758 45.5693L49.206 45.0391L44.8159 40.6489V40.0542ZM42.1909 32.3344L45.7857 35.9292L44.4409 37.2739L40.8462 33.6792L42.1909 32.3344ZM40.1607 34.0542L44.0659 37.9594V39.1489L38.9712 34.0542H40.1607ZM44.0659 40.2094V40.6489L40.1607 44.5542H38.9712L36.9409 42.5239V42.0844L37.4258 42.5693L37.956 42.0391L33.6889 37.7719C33.6098 37.6924 33.5659 37.5871 33.5659 37.4746C33.5659 37.2428 33.7545 37.0542 33.9863 37.0542C34.0988 37.0542 34.2042 37.0981 34.2837 37.1772L37.0508 39.9443L37.581 39.4141L34.8139 36.6469C34.7348 36.5674 34.6909 36.4621 34.6909 36.3496C34.6909 36.1178 34.8795 35.9292 35.1113 35.9292C35.2238 35.9292 35.3292 35.9731 35.4087 36.0522L38.1758 38.8193L38.706 38.2891L35.9389 35.5219C35.8598 35.4424 35.8159 35.3371 35.8159 35.2246C35.8159 34.9928 36.0045 34.8042 36.2363 34.8042C36.3488 34.8042 36.4542 34.8481 36.5337 34.9272L39.3008 37.6943L39.831 37.1641L37.0639 34.3969C36.9848 34.3174 36.9409 34.2121 36.9409 34.0996C36.9409 33.8678 37.1295 33.6792 37.3613 33.6792C37.4738 33.6792 37.5792 33.7231 37.6587 33.8022L37.8008 33.9443L44.0659 40.2094ZM33.9409 30.8344L35.2857 32.1792L31.6909 35.7739L30.3462 34.4292L33.9409 30.8344ZM32.0659 36.4594L35.9712 32.5542H36.4107L36.8877 33.0312C36.4902 33.2082 36.2112 33.5997 36.195 34.0583C35.583 34.0801 35.0918 34.5713 35.07 35.1833C34.458 35.2051 33.9668 35.6963 33.945 36.3083C33.3192 36.3304 32.8159 36.8434 32.8159 37.4746C32.8159 37.7873 32.9378 38.0813 33.1587 38.3022L33.4107 38.5542L32.8159 39.1489L32.0659 38.3989V36.4594ZM35.0659 46.6489L31.4712 43.0542L32.8159 41.7094L36.4107 45.3042L35.0659 46.6489ZM37.0962 44.9292L33.1909 41.0239V39.8344L33.9409 39.0844L36.1909 41.3344V42.6792C36.1909 42.7786 36.2303 42.8742 36.3008 42.9443L38.2857 44.9292H37.0962ZM42.1909 46.2739L40.8462 44.9292L44.4409 41.3344L45.7857 42.6792L42.1909 46.2739Z" fill="black"/>
<path d="M44.1757 42.4142L43.4258 43.1641L43.9561 43.6944L44.706 42.9445L44.1757 42.4142Z" fill="black"/>
<path d="M34.5811 44.288L34.0508 44.8184L34.8007 45.5682L35.331 45.0379L34.5811 44.288Z" fill="black"/>
<path d="M33.6757 31.9142L32.9258 32.6641L33.4561 33.1944L34.206 32.4445L33.6757 31.9142Z" fill="black"/>
<path d="M42.4561 33.415L41.9258 33.9453L42.6757 34.6952L43.206 34.1649L42.4561 33.415Z" fill="black"/>
</svg>
