<svg width="78" height="77" viewBox="0 0 78 77" fill="none" xmlns="http://www.w3.org/2000/svg">
<rect x="-5.96046e-08" y="-0.707107" width="53" height="53" transform="matrix(0.707107 -0.707107 -0.707107 -0.707107 38.5 75.4648)" stroke="#ED6726"/>
<g clip-path="url(#clip0_53_1718)">
<path d="M50.7234 40.4491L48.937 38.3051L50.7234 36.1611C50.823 36.0419 50.8442 35.8759 50.7786 35.7355C50.7126 35.5952 50.5714 35.5052 50.4162 35.5052H45.1631L44.8123 33.0488C44.7843 32.8516 44.6155 32.7052 44.4163 32.7052H41.3611C40.8899 32.3124 39.0723 30.7981 39.0723 30.7981C38.9239 30.6741 38.7087 30.6741 38.5603 30.7981L36.2716 32.7052H33.2164C33.0172 32.7052 32.8488 32.8516 32.8204 33.0484L32.4696 35.5052H27.2166C27.0614 35.5052 26.9202 35.5952 26.8542 35.7356C26.7882 35.8764 26.8098 36.0424 26.9094 36.1612L28.6958 38.3051L26.9094 40.4491C26.8098 40.5683 26.7886 40.7343 26.8542 40.8747C26.9202 41.0155 27.0614 41.1051 27.2166 41.1051H32.4697C32.5765 41.8511 32.8209 43.5618 32.8209 43.5618C32.8489 43.759 33.0177 43.905 33.2164 43.905H36.2716L38.5604 45.8122C38.6348 45.8742 38.7256 45.905 38.8164 45.905C38.9071 45.905 38.9984 45.8742 39.0723 45.8122L41.3607 43.905C41.9823 43.905 44.417 43.9066 44.4162 43.905C44.6154 43.905 44.7838 43.7587 44.8122 43.5618C44.8122 43.5618 45.0566 41.8511 45.1634 41.1051H50.4161C50.5713 41.1051 50.7125 41.0151 50.7785 40.8747C50.8446 40.7338 50.823 40.5678 50.7234 40.4491ZM28.0706 40.3051L29.5238 38.5611C29.6474 38.4127 29.6474 38.1971 29.5238 38.0491L28.0706 36.3051H31.9625L30.5093 38.0491C30.3857 38.1975 30.3857 38.413 30.5093 38.5611L31.9625 40.305H28.0706V40.3051ZM44.5095 40.4486C44.4899 40.4722 44.4727 40.4982 44.4591 40.5258C44.4311 40.5819 44.4299 40.5842 44.0699 43.105C41.1224 43.105 41.1196 43.1066 41.0376 43.1474C41.01 43.1614 40.984 43.1782 40.9604 43.1978L38.8164 44.9842L36.6724 43.1978C36.6008 43.1378 36.51 43.105 36.4164 43.105H33.5633C33.2033 40.5842 33.2021 40.5819 33.1741 40.5258C33.1601 40.4982 33.1433 40.4723 33.1237 40.4486L31.3374 38.3051L33.1237 36.1611C33.1714 36.1039 33.2021 36.0351 33.2125 35.9615L33.5633 33.5052H36.4164C36.5101 33.5052 36.6004 33.4724 36.6724 33.4124L38.8164 31.626C40.9956 33.442 40.9972 33.4427 41.0376 33.4632C41.0932 33.4908 41.1544 33.5052 41.2164 33.5052H44.0695L44.4203 35.9619C44.4307 36.0355 44.4615 36.1044 44.5091 36.1615L46.2954 38.3051L44.5095 40.4486ZM45.6702 40.3051L47.1234 38.5611C47.247 38.4127 47.247 38.1971 47.1234 38.0491L45.6702 36.3052H49.5621L48.109 38.0491C47.9853 38.1975 47.9853 38.4131 48.109 38.5611L49.5621 40.3051H45.6702Z" fill="black"/>
</g>
<defs>
<clipPath id="clip0_53_1718">
<rect width="24" height="24" fill="white" transform="translate(26.8164 26.3047)"/>
</clipPath>
</defs>
</svg>
