<svg width="77" height="77" viewBox="0 0 77 77" fill="none" xmlns="http://www.w3.org/2000/svg">
<rect x="-5.96046e-08" y="-0.706855" width="52.9808" height="52.9808" transform="matrix(0.707358 -0.706855 -0.707358 -0.706855 37.6875 75.4107)" stroke="#ED6726"/>
<g clip-path="url(#clip0_873_3015)">
<path d="M47.9025 31.3639C47.6188 29.9656 46.6779 28.8606 45.1815 28.1683C43.4768 27.3796 41.0864 27.1294 38.077 27.4247C33.4165 27.8821 30.3979 29.3358 29.1052 31.7453C28.4253 33.0126 28.2455 34.5546 28.5854 36.2047C28.8222 37.3541 29.2292 38.1761 29.2991 38.3122C29.3621 38.4679 29.774 39.4334 30.6857 40.4034C31.5894 41.365 33.1737 42.5114 35.5896 42.5114C38.091 42.5114 38.857 41.6707 39.744 40.6974C40.4901 39.8787 41.3357 38.9507 43.5524 38.2589C44.8679 37.8483 46.1093 36.8567 46.9584 35.5383C47.8239 34.1943 48.168 32.6728 47.9025 31.3639ZM43.3405 37.5796C40.9397 38.3289 39.9851 39.3764 39.2181 40.2181C38.3814 41.1364 37.7768 41.7998 35.5897 41.7998C33.8638 41.7998 32.3945 41.1726 31.2225 39.9355C30.3355 38.9993 29.9587 38.0452 29.955 38.0357C29.95 38.0227 29.9441 38.0097 29.9376 37.9975C29.9208 37.9657 28.276 34.789 29.7348 32.0772C30.9099 29.8924 33.74 28.5653 38.1466 28.133C43.3649 27.6209 46.6664 28.8501 47.2052 31.5054C47.6825 33.8587 45.8043 36.8106 43.3405 37.5796Z" fill="black"/>
<path d="M46.5985 29.0956C46.4689 28.9481 46.2441 28.9334 46.0965 29.0629C46.0839 29.0739 44.8233 30.1685 43.3954 30.5045C41.7543 30.8907 40.5344 32.4655 40.4833 32.5324C40.364 32.6883 40.3938 32.9113 40.5496 33.0307C40.6142 33.0802 40.6902 33.1041 40.7657 33.1041C40.8725 33.1041 40.9783 33.0562 41.0484 32.9649C41.0594 32.9505 42.168 31.5243 43.5584 31.1971C45.1629 30.8196 46.5096 29.6472 46.5662 29.5974C46.7136 29.4677 46.728 29.2432 46.5985 29.0956Z" fill="black"/>
<path d="M43.2384 30.8953C43.1746 30.7513 43.0264 30.6705 42.8784 30.6851C42.6848 30.6749 41.6051 30.5162 40.6419 30.3638C40.4482 30.3331 40.2657 30.4655 40.2349 30.6596C40.2042 30.8536 40.3366 31.0359 40.5307 31.0666C42.1679 31.3257 42.6934 31.3935 42.9008 31.3935C42.992 31.3935 43.0216 31.3804 43.0572 31.3647C43.2368 31.2851 43.318 31.0749 43.2384 30.8953Z" fill="black"/>
<path d="M38.2947 37.1342C38.2716 36.9391 38.0946 36.7996 37.8994 36.8228C36.8715 36.945 36.1139 37.2444 35.6476 37.7129C35.3013 38.0606 35.2315 38.3875 35.2176 38.4943C35.1992 38.5838 35.0246 39.3229 34.2382 39.4716C32.9987 39.7061 32.2253 41.1609 32.1929 41.2227C32.1019 41.3969 32.1692 41.6119 32.3433 41.7029C32.396 41.7304 32.4524 41.7435 32.5079 41.7435C32.6361 41.7435 32.76 41.6739 32.8235 41.5524C32.9992 41.2163 33.6198 40.3128 34.3705 40.1708C35.6831 39.9225 35.9112 38.6612 35.9203 38.6076C35.9229 38.5922 35.9236 38.5943 35.9239 38.5832C35.9394 38.5123 36.1501 37.7472 37.9833 37.5294C38.1785 37.5063 38.3179 37.3293 38.2947 37.1342Z" fill="black"/>
<path d="M36.9505 40.1581C36.8952 39.9695 36.6975 39.8615 36.509 39.9168C35.1212 40.3238 34.2541 41.8364 34.2179 41.9005C34.1213 42.0716 34.1817 42.2887 34.3528 42.3853C34.4081 42.4165 34.4681 42.4313 34.5274 42.4313C34.6516 42.4313 34.7722 42.3662 34.8376 42.2503C34.845 42.2372 35.5957 40.9262 36.7092 40.5996C36.8978 40.5444 37.0058 40.3466 36.9505 40.1581Z" fill="black"/>
<path d="M33.0599 34.111C33.0458 33.9149 32.8754 33.7674 32.6797 33.7814C31.7823 33.8455 31.6779 33.7345 31.1755 33.2011C31.0768 33.0963 30.9649 32.9775 30.8329 32.8455C29.9184 31.931 29.2216 32.0084 29.1451 32.0203C28.9509 32.0504 28.8179 32.2322 28.848 32.4264C28.8781 32.6205 29.0599 32.7535 29.2541 32.7235C29.2579 32.7228 29.6845 32.7033 30.3298 33.3486C30.4542 33.473 30.5623 33.5877 30.6576 33.6889C31.1696 34.2325 31.4686 34.5063 32.3411 34.5063C32.4596 34.5063 32.5888 34.5013 32.7303 34.4912C32.9264 34.4772 33.0739 34.307 33.0599 34.111Z" fill="black"/>
<path d="M36.0061 30.3666C35.7623 30.2304 35.3564 30.1604 34.8069 30.6003C34.5622 30.7962 34.35 30.9935 34.1629 31.1674C33.4754 31.8067 33.3496 31.8554 33.0419 31.6011C33.0037 31.5695 32.9975 31.5536 32.9973 31.5541C32.9899 31.4661 33.2077 31.2085 33.3248 31.0699C33.5812 30.7667 33.8717 30.423 33.831 30.0186C33.8088 29.7981 33.6933 29.604 33.4876 29.4417C32.4284 28.6055 31.0807 29.5782 31.0239 29.6201C30.8656 29.7365 30.8317 29.9592 30.9481 30.1175C31.0646 30.2757 31.2873 30.3097 31.4455 30.1932C31.4551 30.1862 32.4083 29.4963 33.0466 30.0002C33.1006 30.0428 33.1215 30.0751 33.1229 30.0898C33.1334 30.194 32.913 30.4547 32.7814 30.6105C32.5222 30.917 32.2543 31.234 32.2885 31.6175C32.3067 31.8211 32.4076 32.0001 32.5886 32.1496C33.416 32.8334 34.042 32.2515 34.6473 31.6886C34.8342 31.5149 35.0273 31.3353 35.2515 31.1558C35.431 31.0121 35.5873 30.9476 35.659 30.9879C35.8335 31.0854 36.0224 31.6824 35.896 32.7045C35.8719 32.8995 36.0104 33.0772 36.2054 33.1013C36.2203 33.1031 36.235 33.104 36.2496 33.104C36.4266 33.104 36.5799 32.972 36.6022 32.7919C36.7538 31.5664 36.5309 30.6597 36.0061 30.3666Z" fill="black"/>
<path d="M37.3744 30.684C36.3289 30.7272 35.9706 31.7683 35.9558 31.8126C35.8937 31.999 35.9946 32.2005 36.181 32.2626C36.2184 32.275 36.2562 32.2809 36.2934 32.2809C36.4425 32.2809 36.5814 32.1865 36.6309 32.0373C36.633 32.0311 36.8434 31.4181 37.4038 31.3949C37.6001 31.3868 37.7527 31.2211 37.7446 31.0247C37.7364 30.8284 37.5709 30.6751 37.3744 30.684Z" fill="black"/>
<path d="M47.6577 30.5768C47.6066 30.4565 47.4927 30.3732 47.3625 30.361C47.1488 30.3414 47.0408 30.5025 47.0054 30.5556C46.5882 31.1818 45.7876 31.6117 44.751 31.7661C42.6149 32.0842 41.7477 33.2949 41.7119 33.3463C41.7095 33.3496 41.7073 33.3529 41.7051 33.3563C41.3786 33.8593 40.3126 35.1227 39.3132 34.9318C39.1202 34.895 38.9339 35.0214 38.897 35.2144C38.8601 35.4074 38.9867 35.5938 39.1796 35.6307C39.2966 35.653 39.4119 35.6634 39.5258 35.6634C41.0044 35.6632 42.1945 33.9069 42.2968 33.7516C42.3543 33.6735 43.0791 32.7345 44.8559 32.4698C46.092 32.2858 47.0646 31.7474 47.5952 30.9536C47.6844 30.854 47.7135 30.708 47.6577 30.5768Z" fill="black"/>
<path d="M44.5195 31.9143C44.3566 31.8045 44.1354 31.8476 44.0256 32.0105C43.9158 32.1735 43.9589 32.3946 44.1219 32.5044C44.1419 32.5179 44.6106 32.843 44.383 33.4955C44.3182 33.681 44.4161 33.8839 44.6016 33.9487C44.6405 33.9622 44.68 33.9686 44.7189 33.9686C44.8659 33.9686 45.0036 33.8766 45.0548 33.7299C45.3799 32.7981 44.8468 32.1348 44.5195 31.9143Z" fill="black"/>
<path d="M47.9819 32.6709C47.939 32.4791 47.7491 32.3584 47.5571 32.4012C47.4162 32.4327 44.0919 33.1864 42.8795 34.4578C42.744 34.6001 42.7493 34.8253 42.8915 34.9609C42.9604 35.0265 43.0488 35.0592 43.137 35.0592C43.2309 35.0592 43.3246 35.0222 43.3945 34.9489C44.4581 33.8335 47.6798 33.103 47.7122 33.0957C47.904 33.0528 48.0246 32.8626 47.9819 32.6709Z" fill="black"/>
<path d="M33.6048 37.7249C33.4786 37.5743 33.2542 37.5545 33.1036 37.6808C32.5199 38.1701 32.1056 38.1931 32.1016 38.1932L32.1089 38.1931V38.9047C32.1746 38.9047 32.7739 38.8856 33.5607 38.2261C33.7113 38.0999 33.731 37.8754 33.6048 37.7249Z" fill="black"/>
<path d="M35.3539 35.9111C35.1708 35.8397 34.9645 35.9303 34.8932 36.1134C34.6721 36.6805 34.0646 37.0138 34.0556 37.0187C33.8826 37.1109 33.8169 37.3258 33.9086 37.4991C33.9724 37.6197 34.0958 37.6885 34.2234 37.6885C34.2795 37.6885 34.3365 37.6752 34.3895 37.6471C34.424 37.6289 35.2368 37.1911 35.5562 36.3719C35.6275 36.1888 35.5369 35.9825 35.3539 35.9111Z" fill="black"/>
<path d="M30.1765 44.9676C30.0449 44.0465 28.2724 43.5337 28.2546 43.5286C26.8973 43.1436 26.3151 44.0018 26.0658 44.7894C25.9064 45.2927 26.0398 45.7556 26.4321 46.0591C26.7554 46.3093 27.2417 46.4318 27.7685 46.4318C28.3924 46.4318 29.0732 46.2599 29.6075 45.9249C30.1429 45.5892 30.2124 45.219 30.1765 44.9676ZM29.2295 45.322C28.4379 45.8185 27.2901 45.8233 26.8676 45.4963C26.7632 45.4155 26.6547 45.2864 26.7441 45.0041C26.9571 44.3314 27.2798 44.1427 27.6326 44.1427C27.7721 44.1427 27.9165 44.1723 28.0605 44.2131C28.6528 44.381 29.4362 44.8173 29.472 45.0681C29.4787 45.1147 29.4062 45.2112 29.2295 45.322Z" fill="black"/>
<path d="M28.4666 43.6956C28.3705 43.5242 28.1537 43.4631 27.9822 43.5592C27.9644 43.5692 27.541 43.8094 27.2261 44.2479C26.7897 44.8555 26.7591 45.5669 27.14 46.2511C27.2051 46.3681 27.3263 46.4339 27.4512 46.4339C27.5098 46.4339 27.5692 46.4195 27.6239 46.3889C27.7956 46.2933 27.8573 46.0767 27.7617 45.905C27.1871 44.8728 28.2115 44.2477 28.3312 44.1793C28.5018 44.0829 28.5624 43.8667 28.4666 43.6956Z" fill="black"/>
<path d="M49.7781 23.1029C49.6187 22.8704 49.3022 22.5873 48.6992 22.5586C48.5329 22.5507 48.3671 22.5245 48.2067 22.4992C47.8318 22.44 47.444 22.3788 47.072 22.56C46.6775 22.7521 46.3944 23.1756 46.1812 23.8926C45.8127 25.132 45.7871 25.8664 46.0955 26.3483C46.2923 26.656 46.6232 26.8453 47.0789 26.911C47.1282 26.9182 47.1775 26.9216 47.2266 26.9216C47.8524 26.9216 48.4667 26.3711 48.8847 25.8888C49.3595 25.341 49.7885 24.6427 49.9519 24.1512C50.0377 23.8935 50.0199 23.4555 49.7781 23.1029ZM49.2767 23.9268C48.9996 24.7599 47.8471 26.2106 47.2317 26.2105C47.2142 26.2105 47.1971 26.2093 47.1805 26.2069C46.8538 26.1597 46.7468 26.0462 46.6947 25.9649C46.5168 25.6868 46.5719 25.0753 46.8633 24.0955C47.0114 23.5972 47.1865 23.2958 47.3835 23.1999C47.4566 23.1643 47.5422 23.1508 47.6399 23.1508C47.7705 23.1508 47.9227 23.1748 48.0956 23.2022C48.2665 23.2292 48.4602 23.2598 48.6652 23.2695C48.915 23.2814 49.0919 23.3608 49.1911 23.5054C49.2994 23.6633 49.2962 23.868 49.2767 23.9268Z" fill="black"/>
<path d="M49.5181 24.3796C48.5122 22.9988 46.656 23.3824 46.5774 23.3994C46.3854 23.441 46.2634 23.6304 46.305 23.8224C46.3466 24.0145 46.536 24.1364 46.7281 24.0949C46.7426 24.0917 48.2068 23.7881 48.9431 24.7986C49.0127 24.8942 49.1211 24.9449 49.2309 24.9449C49.3036 24.9449 49.3769 24.9227 49.4401 24.8767C49.599 24.761 49.6339 24.5384 49.5181 24.3796Z" fill="black"/>
<path d="M44.2445 24.8013C43.6637 24.706 43.1135 25.1007 43.0181 25.6815C42.9227 26.2622 43.3176 26.8123 43.8982 26.9078C43.9566 26.9173 44.0146 26.922 44.072 26.922C44.585 26.922 45.0388 26.55 45.1246 26.0277V26.0276C45.22 25.4469 44.8252 24.8967 44.2445 24.8013ZM44.4225 25.9122C44.3907 26.1058 44.2075 26.2374 44.0137 26.2056C43.8202 26.1738 43.6886 25.9904 43.7204 25.7969C43.7489 25.6227 43.9003 25.4987 44.0713 25.4987C44.0903 25.4987 44.1097 25.5003 44.1292 25.5035C44.3227 25.5353 44.4543 25.7186 44.4225 25.9122Z" fill="black"/>
<path d="M33.5063 43.4459C32.9256 43.3504 32.3755 43.7453 32.28 44.3261C32.2338 44.6074 32.2999 44.8899 32.4661 45.1215C32.6324 45.3531 32.8788 45.5061 33.1602 45.5523C33.2188 45.562 33.2774 45.5667 33.3355 45.5667C33.5569 45.5667 33.7722 45.4979 33.9556 45.3663C34.1872 45.2 34.3402 44.9535 34.3865 44.6722C34.4819 44.0914 34.087 43.5414 33.5063 43.4459ZM33.6843 44.5569C33.6525 44.7505 33.4695 44.8822 33.2756 44.8503C33.082 44.8184 32.9504 44.6351 32.9822 44.4415C33.0108 44.2674 33.162 44.1434 33.3331 44.1434C33.3522 44.1434 33.3715 44.1449 33.391 44.1482C33.5845 44.18 33.7162 44.3633 33.6843 44.5569Z" fill="black"/>
</g>
<defs>
<clipPath id="clip0_873_3015">
<rect width="24" height="24" fill="white" transform="translate(26 22.4375)"/>
</clipPath>
</defs>
</svg>
