<svg width="78" height="77" viewBox="0 0 78 77" fill="none" xmlns="http://www.w3.org/2000/svg">
<rect x="-5.96046e-08" y="-0.707107" width="53" height="53" transform="matrix(0.707107 -0.707107 -0.707107 -0.707107 38.5 75.4648)" stroke="#ED6726"/>
<g clip-path="url(#clip0_53_1734)">
<path d="M50.2947 29.9566C50.5828 29.9566 50.8164 29.723 50.8164 29.4349V27.3479C50.8164 27.0598 50.5828 26.8262 50.2947 26.8262H27.3381C27.05 26.8261 26.8164 27.0598 26.8164 27.3479V29.4349C26.8164 29.723 27.05 29.9566 27.3381 29.9566H29.1642V32.0435H27.3381C27.05 32.0435 26.8164 32.2772 26.8164 32.5653V36.7392C26.8164 37.0273 27.05 37.2609 27.3381 37.2609H29.1642V39.3478H27.3381C27.05 39.3478 26.8164 39.5815 26.8164 39.8696V44.0435C26.8164 44.3315 27.05 44.5652 27.3381 44.5652H29.1642V46.6521H27.3381C27.05 46.6521 26.8164 46.8858 26.8164 47.1739V49.2608C26.8164 49.5489 27.05 49.7825 27.3381 49.7825H50.2947C50.5828 49.7825 50.8164 49.5489 50.8164 49.2608V47.1739C50.8164 46.8858 50.5828 46.6521 50.2947 46.6521H48.4686V44.5652H50.2947C50.5828 44.5652 50.8164 44.3315 50.8164 44.0435V39.8696C50.8164 39.5815 50.5828 39.3478 50.2947 39.3478H48.4686V37.2609H50.2947C50.5828 37.2609 50.8164 37.0273 50.8164 36.7392V32.5653C50.8164 32.2772 50.5828 32.0435 50.2947 32.0435H48.4686V29.9566H50.2947ZM49.7729 47.6957V48.7392H27.8599V47.6957H49.7729ZM30.2077 46.6522V44.5653H31.7729V46.6522H30.2077ZM32.8164 46.6522V44.5653H36.9903V46.6522H32.8164ZM38.0338 46.6522V44.5653H39.599V46.6522H38.0338ZM40.6425 46.6522V44.5653H44.8164V46.6522H40.6425ZM45.8599 46.6522V44.5653H47.4251V46.6522H45.8599ZM49.7729 43.5218H27.8599V42.4783H49.7729V43.5218ZM49.7729 40.3914V41.4349H27.8599V40.3914H49.7729ZM30.2077 39.3479V37.2609H31.7729V39.3479H30.2077ZM32.8164 39.3479V37.2609H36.9903V39.3479H32.8164ZM38.0338 39.3479V37.2609H39.599V39.3479H38.0338ZM40.6425 39.3479V37.2609H44.8164V39.3479H40.6425ZM45.8599 39.3479V37.2609H47.4251V39.3479H45.8599ZM49.7729 36.2174H27.8599V35.174H49.7729V36.2174ZM49.7729 33.087V34.1305H27.8599V33.087H49.7729ZM30.2077 32.0435V29.9566H31.7729V32.0435H30.2077ZM32.8164 32.0435V29.9566H36.9903V32.0435H32.8164ZM38.0338 32.0435V29.9566H39.599V32.0435H38.0338ZM40.6425 32.0435V29.9566H44.8164V32.0435H40.6425ZM45.8599 32.0435V29.9566H47.4251V32.0435H45.8599ZM27.8599 28.9131V27.8696H49.7729V28.9131H27.8599Z" fill="black"/>
</g>
<defs>
<clipPath id="clip0_53_1734">
<rect width="24" height="24" fill="white" transform="translate(26.8164 26.3047)"/>
</clipPath>
</defs>
</svg>
