<svg width="78" height="78" viewBox="0 0 78 78" fill="none" xmlns="http://www.w3.org/2000/svg">
<rect x="-5.96046e-08" y="-0.707107" width="53" height="53" transform="matrix(0.707107 -0.707107 -0.707107 -0.707107 38.5 76.0976)" stroke="#ED6726"/>
<g clip-path="url(#clip0_53_1727)">
<path d="M50.735 38.1044C50.6176 37.973 50.4163 37.9632 50.2859 38.0802L49.6618 38.6403L46.2776 35.2848C46.153 35.1614 45.952 35.1617 45.8279 35.2867C45.7042 35.4113 45.7048 35.6127 45.8298 35.7364L49.1879 39.0659L47.5254 40.5579L41.9962 34.9575L47.4923 29.7581C47.6199 29.6373 47.6256 29.4359 47.5047 29.3084C47.3835 29.1805 47.1825 29.1757 47.055 29.2957L41.3229 34.7186C41.2609 34.7775 41.2249 34.8586 41.2233 34.9441C41.2217 35.0297 41.2551 35.1121 41.3149 35.1731L41.8241 35.689L40.7023 36.8627L38.5386 36.6321C38.4428 36.6206 38.349 36.655 38.2809 36.7224L37.4015 37.5942L35.7667 35.9794L36.3175 35.4215C36.3773 35.3608 36.4107 35.2781 36.4091 35.1925C36.4075 35.107 36.3719 35.0259 36.3096 34.967L30.5778 29.5444C30.4506 29.4241 30.2489 29.4289 30.1281 29.5571C30.0072 29.6846 30.0129 29.886 30.1405 30.0068L34.0084 33.6655L28.344 39.2236L27.3469 38.3289C27.2165 38.2119 27.0152 38.2224 26.8978 38.3531C26.7805 38.4838 26.7913 38.6848 26.922 38.8022L29.9083 41.4825C29.9687 41.5369 30.045 41.5639 30.1207 41.5639C30.2031 41.5639 30.2852 41.5321 30.3472 41.4695L30.8882 40.9215L33.8624 43.8549L33.316 44.4106C33.1935 44.5353 33.1942 44.735 33.3179 44.8584L34.433 45.9735C34.433 45.9735 34.4337 45.9739 34.4337 45.9742C34.4337 45.9745 34.434 45.9748 34.4343 45.9748L35.5497 47.0775L36.6636 48.1917L37.7787 49.3068C37.8407 49.3689 37.9222 49.4 38.0036 49.4C38.085 49.4 38.1664 49.3689 38.2285 49.3068L38.8054 48.7299L39.3919 49.3084C39.4536 49.3695 39.5344 49.4 39.6152 49.4C39.6966 49.4 39.7781 49.3689 39.8401 49.3068L40.7303 48.4166L40.8617 48.5479C40.9237 48.61 41.0051 48.6411 41.0866 48.6411C41.168 48.6411 41.2494 48.61 41.3114 48.5479L42.2017 47.6577L42.333 47.789C42.3951 47.8511 42.4765 47.8822 42.5579 47.8822C42.6393 47.8822 42.7208 47.8511 42.7828 47.789L43.673 46.8988L43.8041 47.0298C43.8661 47.0919 43.9475 47.123 44.0289 47.123C44.1104 47.123 44.1918 47.0919 44.2538 47.0298L45.3689 45.9147C45.4933 45.7903 45.4933 45.5893 45.3689 45.465L43.7131 43.8091L46.7058 40.6339L47.2859 41.2217C47.3479 41.2847 47.43 41.3162 47.5124 41.3162C47.5881 41.3162 47.6644 41.2891 47.7248 41.2347L50.7111 38.5544C50.8415 38.4361 50.8523 38.2351 50.735 38.1044ZM34.6487 38.2815C34.6487 39.049 34.0243 39.6731 33.2571 39.6731C32.9518 39.6731 32.6586 39.5726 32.4194 39.3919L34.3675 37.4434C34.5482 37.6829 34.6487 37.9762 34.6487 38.2815ZM34.8185 36.9924L35.3494 36.4616L35.6362 36.745L35.0517 37.3436C34.9868 37.2192 34.9088 37.1015 34.8185 36.9924ZM30.1074 40.8063L28.8183 39.6492L34.4709 34.1028L35.6369 35.2059L30.1074 40.8063ZM31.9684 39.8429C32.081 39.9361 32.2025 40.0159 32.3316 40.0824C32.2308 40.1861 32.1268 40.2939 32.0221 40.4021C31.8955 40.5328 31.7721 40.6597 31.6528 40.7821L31.3389 40.4727L31.9684 39.8429ZM34.3153 44.3012L34.9839 44.9605L34.6553 45.2961L33.9906 44.6313L34.3153 44.3012ZM35.7717 46.4026L35.1073 45.7458L35.439 45.4096L36.1063 46.0677L35.7717 46.4026ZM36.5593 46.5146L37.2291 47.1752L36.8878 47.5165L36.2224 46.8511L36.5593 46.5146ZM38.0033 48.6316L37.3379 47.9662L37.6823 47.6217L38.3522 48.2827L38.0033 48.6316ZM44.0286 46.3543L43.8976 46.2232L42.6136 44.9392C42.6136 44.9392 42.6133 44.9392 42.6133 44.9389L42.223 44.5486C42.0986 44.4243 41.8976 44.4243 41.7733 44.5486C41.6489 44.673 41.6489 44.874 41.7733 44.9984L43.2233 46.4481L42.5579 47.1135L40.752 45.3075C40.6276 45.1832 40.4266 45.1832 40.3022 45.3075C40.1779 45.4319 40.1779 45.6329 40.3022 45.7573L40.6931 46.1482L41.7519 47.2073L41.0866 47.8727L40.0424 46.8288L39.6712 46.4576C39.6712 46.4576 39.6709 46.4576 39.6709 46.4573L39.2806 46.0671C39.1562 45.9427 38.9552 45.9427 38.8309 46.0671C38.7065 46.1914 38.7065 46.3924 38.8309 46.5168L39.5608 47.2468L40.2806 47.9665L39.6136 48.6335L32.1058 41.2287C32.2263 41.105 32.3513 40.9762 32.4788 40.8442C32.6662 40.6508 32.8507 40.4603 33.0148 40.2936C33.0949 40.3031 33.1754 40.3092 33.2571 40.3092C34.3755 40.3092 35.2848 39.3995 35.2848 38.2815C35.2848 38.1979 35.2784 38.1152 35.2683 38.0331L36.0892 37.1922L36.9502 38.0424L33.9477 41.0197C33.8831 41.0837 33.8491 41.1721 33.8541 41.2631C33.8592 41.354 33.9025 41.438 33.9737 41.4946C34.0478 41.5541 35.7896 42.8731 38.8137 39.8082L44.694 45.6889L44.0286 46.3543ZM43.2627 43.3584L39.0341 39.1295C38.9734 39.0687 38.898 39.035 38.8041 39.0363C38.7179 39.0376 38.6365 39.0738 38.5774 39.1365C36.6264 41.2125 35.3195 41.2755 34.7301 41.1393L38.6213 37.2806L40.147 37.4431L39.918 37.6829C39.7965 37.8099 39.8013 38.0112 39.9279 38.1327C40.0548 38.2539 40.2558 38.2497 40.3776 38.1225L42.2058 36.21L46.2182 40.2224L43.2627 43.3584ZM43.819 34.2272C43.819 34.7752 44.2649 35.2211 44.813 35.2211C45.361 35.2211 45.8069 34.7752 45.8069 34.2272C45.8069 33.6792 45.361 33.2333 44.813 33.2333C44.2649 33.2333 43.819 33.6792 43.819 34.2272ZM45.1708 34.2272C45.1708 34.4244 45.0102 34.585 44.813 34.585C44.6158 34.585 44.4552 34.4244 44.4552 34.2272C44.4552 34.03 44.6158 33.8694 44.813 33.8694C45.0102 33.8694 45.1708 34.03 45.1708 34.2272Z" fill="#231F20"/>
</g>
<defs>
<clipPath id="clip0_53_1727">
<rect width="24" height="24" fill="white" transform="translate(26.8164 27.3047)"/>
</clipPath>
</defs>
</svg>
