<svg width="60" height="60" viewBox="0 0 60 60" fill="none" xmlns="http://www.w3.org/2000/svg">
<rect x="-5.96046e-08" y="-0.707107" width="41.4264" height="41.4264" transform="matrix(0.707107 -0.707107 -0.707107 -0.707107 29.5 58.7929)" stroke="#ED6726"/>
<g clip-path="url(#clip0_53_1329)">
<path d="M29.4267 29.3457C28.7753 29.3457 28.2451 29.8758 28.2451 30.5273C28.2451 31.1788 28.7752 31.7089 29.4267 31.7089C30.0783 31.7089 30.6084 31.1788 30.6084 30.5273C30.6084 29.8758 30.0782 29.3457 29.4267 29.3457ZM29.4267 31.0336C29.1475 31.0336 28.9203 30.8064 28.9203 30.5272C28.9203 30.248 29.1475 30.0208 29.4267 30.0208C29.7059 30.0208 29.9331 30.248 29.9331 30.5272C29.9331 30.8064 29.706 31.0336 29.4267 31.0336Z" fill="black"/>
<path d="M37.0223 34.7474C36.4598 34.7474 35.9432 34.9456 35.537 35.2749L33.1582 33.1108C33.4659 32.6021 33.6463 32.0081 33.6463 31.3714C33.6463 29.6238 32.3115 28.1825 30.6079 28.0126V25.2678C31.7512 25.1031 32.6335 24.1198 32.6335 22.9315C32.6336 21.6285 31.5735 20.5684 30.2704 20.5684C28.9673 20.5684 27.9072 21.6285 27.9072 22.9315C27.9072 24.1197 28.7894 25.103 29.9327 25.2678V28.0126C28.2292 28.1826 26.8944 29.6239 26.8944 31.3714C26.8944 32.0079 27.0747 32.6018 27.3822 33.1105L25.0235 35.2902C24.6144 34.9513 24.0898 34.7474 23.5184 34.7474C22.2154 34.7474 21.1553 35.8075 21.1553 37.1105C21.1553 38.4136 22.2154 39.4737 23.5184 39.4737C24.8215 39.4737 25.8817 38.4136 25.8817 37.1105C25.8817 36.6218 25.7325 36.1673 25.4774 35.7901L27.7896 33.6533C28.407 34.3239 29.289 34.7474 30.2703 34.7474C31.2516 34.7474 32.1337 34.3239 32.7511 33.6533L35.0781 35.7703C34.8145 36.1515 34.6591 36.613 34.6591 37.1105C34.6591 38.4136 35.7192 39.4737 37.0223 39.4737C38.3253 39.4737 39.3854 38.4136 39.3854 37.1105C39.3854 35.8075 38.3253 34.7474 37.0223 34.7474ZM23.5184 38.7984C22.5877 38.7984 21.8304 38.0412 21.8304 37.1104C21.8304 36.1797 22.5877 35.4224 23.5184 35.4224C24.4491 35.4224 25.2064 36.1797 25.2064 37.1104C25.2064 38.0412 24.4491 38.7984 23.5184 38.7984ZM28.5824 22.9315C28.5824 22.0008 29.3397 21.2435 30.2704 21.2435C31.2011 21.2435 31.9584 22.0008 31.9584 22.9315C31.9584 23.8622 31.2011 24.6195 30.2704 24.6195C29.3397 24.6195 28.5824 23.8622 28.5824 22.9315ZM30.2704 34.0721C28.7812 34.0721 27.5697 32.8605 27.5697 31.3714C27.5697 29.8823 28.7813 28.6707 30.2704 28.6707C31.7595 28.6707 32.9711 29.8823 32.9711 31.3714C32.9711 32.8605 31.7595 34.0721 30.2704 34.0721ZM37.0223 38.7984C36.0916 38.7984 35.3343 38.0412 35.3343 37.1104C35.3343 36.6517 35.5195 36.2362 35.8176 35.9317L35.8341 35.9135C36.1394 35.6104 36.5592 35.4224 37.0223 35.4224C37.953 35.4224 38.7103 36.1797 38.7103 37.1104C38.7102 38.0412 37.9529 38.7984 37.0223 38.7984Z" fill="black"/>
<path d="M37.0222 35.7598C36.2776 35.7598 35.6719 36.3655 35.6719 37.1101C35.6719 37.2966 35.8231 37.4477 36.0094 37.4477C36.1958 37.4477 36.347 37.2965 36.347 37.1101C36.347 36.7378 36.6498 36.4349 37.0222 36.4349C37.2087 36.4349 37.3598 36.2837 37.3598 36.0973C37.3598 35.9109 37.2086 35.7598 37.0222 35.7598Z" fill="black"/>
<path d="M23.5183 35.7598C22.7737 35.7598 22.168 36.3655 22.168 37.1101C22.168 37.2966 22.3192 37.4477 22.5055 37.4477C22.6919 37.4477 22.8431 37.2965 22.8431 37.1101C22.8431 36.7378 23.1459 36.4349 23.5183 36.4349C23.7048 36.4349 23.8559 36.2837 23.8559 36.0973C23.856 35.9109 23.7048 35.7598 23.5183 35.7598Z" fill="black"/>
<path d="M30.6079 21.9196C30.6079 21.7331 30.4567 21.582 30.2703 21.582C29.5257 21.582 28.9199 22.1878 28.9199 22.9324C28.9199 23.1188 29.0711 23.27 29.2575 23.27C29.4439 23.27 29.5951 23.1188 29.5951 22.9324C29.5951 22.5601 29.8979 22.2572 30.2703 22.2572C30.4567 22.2573 30.6079 22.1061 30.6079 21.9196Z" fill="black"/>
</g>
<defs>
<clipPath id="clip0_53_1329">
<rect width="18.9053" height="18.9053" fill="white" transform="translate(20.8174 20.5684)"/>
</clipPath>
</defs>
</svg>
