<svg width="60" height="60" viewBox="0 0 60 60" fill="none" xmlns="http://www.w3.org/2000/svg">
<g clip-path="url(#clip0_53_1398)">
<path d="M25.5442 26.3066C23.5171 26.3066 21.8682 27.9556 21.8682 29.9827C21.8682 32.0097 23.5171 33.6587 25.5442 33.6587C27.3268 33.6587 29.4776 30.6766 29.9541 29.9827C29.4775 29.2887 27.3268 26.3066 25.5442 26.3066ZM25.5442 33.1335C23.8067 33.1335 22.3933 31.7201 22.3933 29.9827C22.3933 28.2452 23.8068 26.8318 25.5442 26.8318C26.6588 26.8318 28.2214 28.4671 29.3121 29.9827C28.2214 31.4982 26.6588 33.1335 25.5442 33.1335Z" fill="#010002"/>
<path d="M34.9959 26.2988C33.2133 26.2988 31.0625 29.2809 30.5859 29.9748C31.0623 30.6688 33.2133 33.6509 34.9959 33.6509C37.0229 33.6509 38.6719 32.0019 38.6719 29.9748C38.6719 27.9478 37.0229 26.2988 34.9959 26.2988ZM34.9959 33.1257C33.8813 33.1257 32.3187 31.4904 31.2277 29.9748C32.3184 28.4593 33.881 26.824 34.9959 26.824C36.7333 26.824 38.1467 28.2374 38.1467 29.9748C38.1467 31.7123 36.7333 33.1257 34.9959 33.1257Z" fill="#010002"/>
<path d="M34.9964 25.248C33.1539 25.248 31.2867 27.2935 30.2666 28.6253C29.2473 27.2967 27.3828 25.2567 25.5437 25.2567C22.9376 25.2567 20.8174 27.377 20.8174 29.9831C20.8174 32.5891 22.9376 34.7094 25.5437 34.7094C27.387 34.7094 29.2536 32.6639 30.2734 31.3322C31.2927 32.6608 33.157 34.7007 34.9964 34.7007C37.6024 34.7007 39.7227 32.5805 39.7227 29.9744C39.7227 27.3683 37.6024 25.248 34.9964 25.248ZM34.9964 34.1756C33.0669 34.1756 30.9561 31.4164 30.2732 30.4452C29.5965 31.4086 27.4789 34.1842 25.5437 34.1842C23.2273 34.1842 21.3425 32.2995 21.3425 29.9831C21.3425 27.6666 23.2273 25.7819 25.5437 25.7819C27.4731 25.7819 29.5839 28.541 30.2669 29.5122C30.9436 28.5489 33.0612 25.7732 34.9964 25.7732C37.3128 25.7732 39.1975 27.6579 39.1975 29.9744C39.1975 32.2908 37.3128 34.1756 34.9964 34.1756Z" fill="#010002"/>
</g>
<rect x="-5.96046e-08" y="-0.707107" width="41.4264" height="41.4264" transform="matrix(0.707107 -0.707107 -0.707107 -0.707107 29.5 58.7929)" stroke="#ED6726"/>
<defs>
<clipPath id="clip0_53_1398">
<rect width="18.9053" height="18.9053" fill="white" transform="translate(20.8174 20.5254)"/>
</clipPath>
</defs>
</svg>
