<svg width="78" height="77" viewBox="0 0 78 77" fill="none" xmlns="http://www.w3.org/2000/svg">
<rect x="-5.96046e-08" y="-0.707107" width="53" height="53" transform="matrix(0.707107 -0.707107 -0.707107 -0.707107 38.5 75.1601)" stroke="#ED6726"/>
<g clip-path="url(#clip0_53_196)">
<path d="M49.6831 35.1447C49.6417 35.1143 49.5938 35.094 49.5431 35.0854C49.4924 35.0768 49.4404 35.0803 49.3913 35.0954L48.1664 35.474C48.0379 34.9483 47.8693 34.4332 47.6622 33.9331L48.5223 33.0048C48.57 32.9534 48.5999 32.8881 48.6077 32.8185C48.6156 32.7488 48.6009 32.6785 48.5658 32.6178L46.9135 29.7558C46.8878 29.7113 46.852 29.6735 46.809 29.6454C46.766 29.6172 46.717 29.5996 46.6659 29.5939C46.6148 29.5881 46.5631 29.5945 46.5149 29.6124C46.4668 29.6303 46.4235 29.6592 46.3885 29.6969L45.5148 30.6397C45.141 30.2486 44.7381 29.8865 44.3095 29.5563L44.5908 28.3213C44.6062 28.253 44.5994 28.1816 44.5713 28.1175C44.5432 28.0534 44.4954 28 44.4348 27.965L41.573 26.3118C41.5285 26.2861 41.4785 26.2713 41.4272 26.2684C41.3759 26.2655 41.3247 26.2747 41.2776 26.2953C41.2305 26.3159 41.1889 26.3472 41.1561 26.3868C41.1233 26.4263 41.1003 26.473 41.0888 26.5231L40.804 27.7751C40.2847 27.6234 39.7545 27.5117 39.2182 27.4409L38.8432 26.2306C38.8224 26.1639 38.7809 26.1055 38.7247 26.0641C38.6685 26.0226 38.6005 26.0001 38.5306 26H35.2259C35.1745 26 35.1238 26.012 35.0779 26.0351C35.032 26.0583 34.9922 26.0919 34.9617 26.1333C34.9312 26.1747 34.9108 26.2226 34.9023 26.2733C34.8937 26.324 34.8972 26.376 34.9124 26.4251L35.291 27.65C34.7652 27.7785 34.25 27.947 33.7499 28.154L32.822 27.2938C32.7706 27.2462 32.7053 27.2163 32.6357 27.2084C32.5661 27.2005 32.4959 27.2151 32.4352 27.2501L29.573 28.9023C29.5284 28.928 29.4905 28.9637 29.4623 29.0067C29.4341 29.0497 29.4164 29.0988 29.4107 29.1499C29.4049 29.201 29.4113 29.2527 29.4292 29.3009C29.4471 29.3491 29.4762 29.3924 29.5139 29.4273L30.4567 30.3013C30.0656 30.6751 29.7034 31.078 29.3731 31.5065L28.138 31.2253C28.0698 31.2096 27.9983 31.2162 27.9342 31.2443C27.87 31.2723 27.8166 31.3203 27.7818 31.3811L26.1288 34.2431C26.1031 34.2876 26.0882 34.3375 26.0854 34.3888C26.0825 34.44 26.0917 34.4913 26.1123 34.5384C26.1328 34.5855 26.1642 34.6271 26.2037 34.6598C26.2433 34.6926 26.29 34.7156 26.3401 34.727L27.592 35.012C27.4403 35.5313 27.3286 36.0615 27.2579 36.5979L26.0476 36.9729C25.9808 36.9935 25.9223 37.035 25.8807 37.0912C25.8391 37.1474 25.8166 37.2155 25.8164 37.2854V40.5901C25.8164 40.6415 25.8285 40.6922 25.8516 40.738C25.8748 40.7839 25.9084 40.8237 25.9498 40.8542C25.9911 40.8847 26.0391 40.905 26.0897 40.9136C26.1404 40.9221 26.1924 40.9187 26.2415 40.9034L27.4664 40.5249C27.5949 41.0507 27.7635 41.5659 27.9706 42.0659L27.1102 42.9941C27.0625 43.0455 27.0326 43.1109 27.0248 43.1806C27.0171 43.2502 27.0319 43.3206 27.067 43.3812L28.7193 46.2432C28.745 46.2877 28.7808 46.3256 28.8238 46.3537C28.8668 46.3818 28.9158 46.3995 28.9669 46.4052C29.018 46.4109 29.0697 46.4046 29.1179 46.3867C29.166 46.3688 29.2093 46.3398 29.2443 46.3021L30.118 45.3594C30.4918 45.7505 30.8947 46.1126 31.3233 46.4427L31.042 47.6778C31.0265 47.7462 31.0333 47.8178 31.0613 47.882C31.0894 47.9463 31.1373 47.9999 31.198 48.035L34.0598 49.6873C34.1044 49.7129 34.1543 49.7278 34.2056 49.7307C34.2569 49.7335 34.3081 49.7243 34.3552 49.7038C34.4023 49.6832 34.4439 49.6519 34.4767 49.6123C34.5095 49.5727 34.5325 49.526 34.544 49.4759L34.8288 48.224C35.3481 48.3756 35.8783 48.4874 36.4147 48.5583L36.7897 49.7684C36.8102 49.8353 36.8517 49.8939 36.9079 49.9356C36.9641 49.9772 37.0322 49.9998 37.1022 50H40.4069C40.4583 50 40.509 49.988 40.5549 49.9648C40.6008 49.9417 40.6406 49.9081 40.6711 49.8667C40.7016 49.8253 40.722 49.7774 40.7305 49.7267C40.7391 49.676 40.7356 49.624 40.7204 49.5749L40.3418 48.35C40.8676 48.2216 41.3828 48.0531 41.8829 47.846L42.8108 48.7061C42.8623 48.7537 42.9276 48.7835 42.9973 48.7914C43.067 48.7992 43.1373 48.7845 43.198 48.7496L46.0598 47.0973C46.1044 47.0717 46.1423 47.0359 46.1705 46.9929C46.1987 46.9499 46.2164 46.9008 46.2221 46.8497C46.2279 46.7986 46.2215 46.7469 46.2036 46.6987C46.1857 46.6505 46.1567 46.6072 46.1189 46.5723L45.1762 45.6986C45.5671 45.3246 45.9293 44.9216 46.2597 44.4931L47.4948 44.7744C47.563 44.7899 47.6344 44.7831 47.6985 44.7551C47.7627 44.727 47.8161 44.6792 47.851 44.6186L49.5035 41.7566C49.5291 41.7121 49.544 41.6621 49.5469 41.6108C49.5497 41.5595 49.5405 41.5083 49.5199 41.4612C49.4993 41.4141 49.468 41.3725 49.4284 41.3398C49.3888 41.307 49.3421 41.284 49.292 41.2726L48.0402 40.9878C48.1919 40.4685 48.3036 39.9383 48.3743 39.4019L49.5847 39.0269C49.6517 39.0063 49.7103 38.9648 49.752 38.9084C49.7937 38.852 49.8163 38.7838 49.8164 38.7136V35.4089C49.8164 35.3575 49.8043 35.3069 49.7812 35.261C49.758 35.2151 49.7244 35.1753 49.6831 35.1447V35.1447ZM49.1602 38.4716L47.9789 38.837C47.9179 38.8559 47.8637 38.8921 47.823 38.9414C47.7823 38.9906 47.7568 39.0506 47.7498 39.1141C47.6736 39.798 47.5268 40.4722 47.3118 41.1258C47.2975 41.1692 47.2924 41.2151 47.2968 41.2606C47.3013 41.3061 47.3152 41.3501 47.3377 41.3899C47.3602 41.4297 47.3908 41.4643 47.4274 41.4916C47.4641 41.5189 47.5061 41.5382 47.5507 41.5483L48.7132 41.813L47.4044 44.0801L46.1977 43.8057C46.1354 43.7914 46.0702 43.7956 46.0103 43.8178C45.9503 43.84 45.8981 43.8792 45.8602 43.9306C45.4509 44.4842 44.986 44.9943 44.4727 45.4529C44.4386 45.4834 44.4113 45.5206 44.3924 45.5622C44.3736 45.6038 44.3636 45.6489 44.3632 45.6946C44.3628 45.7402 44.3719 45.7855 44.39 45.8275C44.408 45.8694 44.4347 45.9071 44.4682 45.9382L45.3447 46.7506L43.0775 48.0594L42.1711 47.2196C42.1244 47.176 42.0659 47.1471 42.0029 47.1364C41.9399 47.1258 41.8752 47.1338 41.8167 47.1596C41.1863 47.4357 40.5289 47.6457 39.8551 47.786C39.8103 47.7953 39.768 47.8139 39.7308 47.8405C39.6936 47.8671 39.6624 47.9012 39.6391 47.9406C39.6159 47.9799 39.6011 48.0237 39.5958 48.0692C39.5904 48.1146 39.5947 48.1606 39.6082 48.2043L39.9603 49.3432H37.3443L36.9788 48.161C36.96 48.0999 36.9237 48.0457 36.8745 48.005C36.8252 47.9643 36.7651 47.9388 36.7015 47.9319C36.0178 47.8556 35.3438 47.7088 34.6902 47.4939C34.6468 47.4795 34.6009 47.4744 34.5554 47.4789C34.5099 47.4833 34.4659 47.4972 34.4261 47.5197C34.3863 47.5422 34.3517 47.5727 34.3244 47.6094C34.2971 47.646 34.2777 47.688 34.2676 47.7326L34.0028 48.8962L31.7356 47.5874L32.0103 46.3814C32.0246 46.3191 32.0204 46.254 31.9982 46.194C31.9759 46.1341 31.9367 46.0819 31.8852 46.0439C31.3317 45.6347 30.8216 45.1697 30.3629 44.6564C30.3324 44.6224 30.2952 44.5951 30.2536 44.5762C30.212 44.5574 30.1669 44.5474 30.1212 44.5469C30.0754 44.546 30.03 44.5549 29.988 44.573C29.9459 44.5911 29.9082 44.618 29.8775 44.6519L29.065 45.5285L27.7563 43.2614L28.5963 42.3549C28.6397 42.3081 28.6685 42.2496 28.6791 42.1866C28.6898 42.1237 28.6817 42.059 28.6561 42.0005C28.3797 41.3705 28.1695 40.7134 28.0289 40.04C28.0197 39.9952 28.0011 39.9529 27.9746 39.9157C27.948 39.8785 27.9139 39.8472 27.8745 39.824C27.8351 39.8008 27.7913 39.786 27.7459 39.7807C27.7005 39.7754 27.6545 39.7797 27.6108 39.7933L26.4727 40.145V37.5273L27.6548 37.1619C27.7159 37.143 27.7701 37.1067 27.8108 37.0575C27.8515 37.0083 27.8769 36.9482 27.884 36.8847C27.9602 36.2009 28.107 35.5267 28.322 34.8731C28.3363 34.8297 28.3414 34.7838 28.3369 34.7383C28.3325 34.6928 28.3185 34.6487 28.296 34.609C28.2736 34.5692 28.243 34.5345 28.2063 34.5073C28.1696 34.48 28.1277 34.4607 28.0831 34.4506L26.9206 34.1859L28.2293 31.9188L29.4352 32.1931C29.4975 32.2075 29.5626 32.2033 29.6226 32.1811C29.6825 32.1589 29.7347 32.1197 29.7727 32.0682C30.1819 31.5147 30.6468 31.0046 31.1602 30.5459C31.1942 30.5155 31.2215 30.4783 31.2404 30.4367C31.2593 30.3951 31.2692 30.35 31.2696 30.3043C31.2701 30.2586 31.2609 30.2134 31.2429 30.1714C31.2248 30.1295 31.1981 30.0918 31.1647 30.0607L30.2881 29.2482L32.5553 27.9395L33.4617 28.7793C33.5085 28.8227 33.567 28.8516 33.6299 28.8622C33.6929 28.8729 33.7576 28.865 33.8161 28.8395C34.4459 28.5632 35.1026 28.353 35.7758 28.2125C35.8206 28.2032 35.863 28.1847 35.9002 28.1581C35.9374 28.1315 35.9686 28.0974 35.9919 28.058C36.0151 28.0186 36.0299 27.9748 36.0352 27.9294C36.0405 27.8839 36.0363 27.8379 36.0228 27.7942L35.6707 26.6563H38.2885L38.654 27.8375C38.6728 27.8986 38.7091 27.9528 38.7584 27.9935C38.8076 28.0342 38.8677 28.0597 38.9313 28.0666C39.615 28.143 40.2891 28.2899 40.9426 28.505C40.986 28.5193 41.0319 28.5244 41.0774 28.52C41.1229 28.5155 41.1669 28.5016 41.2067 28.4792C41.2465 28.4567 41.2812 28.4261 41.3085 28.3895C41.3358 28.3528 41.3551 28.3109 41.3652 28.2663L41.63 27.1027L43.8972 28.4114L43.6225 29.6174C43.6082 29.6798 43.6124 29.7449 43.6347 29.8049C43.6569 29.8648 43.6961 29.917 43.7476 29.9549C44.3011 30.3642 44.8112 30.8291 45.2699 31.3424C45.3004 31.3765 45.3376 31.4038 45.3792 31.4227C45.4208 31.4415 45.4659 31.4515 45.5116 31.4519C45.6031 31.4485 45.69 31.4111 45.7553 31.3469L46.5678 30.4704L47.8765 32.7374L47.0365 33.644C46.9931 33.6908 46.9643 33.7493 46.9537 33.8122C46.943 33.8752 46.9509 33.9399 46.9765 33.9984C47.2529 34.6284 47.4631 35.2854 47.6039 35.9589C47.6132 36.0036 47.6317 36.046 47.6583 36.0832C47.6849 36.1204 47.719 36.1516 47.7583 36.1748C47.7977 36.1981 47.8415 36.2128 47.8869 36.2182C47.9323 36.2235 47.9783 36.2193 48.022 36.2058L49.1609 35.8539L49.1602 38.4716Z" fill="black"/>
<path d="M37.8164 30.5C36.333 30.5 34.883 30.9399 33.6496 31.764C32.4163 32.5881 31.455 33.7594 30.8873 35.1299C30.3197 36.5003 30.1711 38.0083 30.4605 39.4632C30.7499 40.918 31.4642 42.2544 32.5131 43.3033C33.562 44.3522 34.8984 45.0665 36.3532 45.3559C37.8081 45.6453 39.3161 45.4968 40.6865 44.9291C42.057 44.3614 43.2283 43.4001 44.0524 42.1668C44.8765 40.9334 45.3164 39.4834 45.3164 38C45.3142 36.0116 44.5233 34.1052 43.1172 32.6992C41.7112 31.2931 39.8048 30.5022 37.8164 30.5ZM37.8164 44.8438C36.4628 44.8438 35.1397 44.4424 34.0142 43.6904C32.8888 42.9384 32.0116 41.8695 31.4936 40.619C30.9756 39.3685 30.8401 37.9924 31.1042 36.6649C31.3682 35.3373 32.02 34.1179 32.9771 33.1607C33.9343 32.2036 35.1537 31.5518 36.4813 31.2878C37.8088 31.0237 39.1849 31.1592 40.4354 31.6772C41.6859 32.1952 42.7548 33.0724 43.5068 34.1978C44.2588 35.3233 44.6602 36.6464 44.6602 38C44.6581 39.8144 43.9364 41.554 42.6534 42.837C41.3704 44.12 39.6308 44.8417 37.8164 44.8438Z" fill="black"/>
<path d="M37.8164 32C36.6297 32 35.4697 32.3519 34.483 33.0112C33.4963 33.6705 32.7273 34.6075 32.2731 35.7039C31.819 36.8003 31.7002 38.0067 31.9317 39.1705C32.1632 40.3344 32.7347 41.4035 33.5738 42.2426C34.4129 43.0818 35.482 43.6532 36.6459 43.8847C37.8098 44.1162 39.0162 43.9974 40.1125 43.5433C41.2089 43.0892 42.1459 42.3201 42.8052 41.3334C43.4645 40.3467 43.8164 39.1867 43.8164 38C43.8146 36.4093 43.1818 34.8842 42.057 33.7594C40.9322 32.6346 39.4071 32.0018 37.8164 32V32ZM37.8164 43.3438C36.7595 43.3438 35.7264 43.0303 34.8476 42.4432C33.9688 41.856 33.2839 41.0214 32.8794 40.045C32.475 39.0685 32.3691 37.9941 32.5753 36.9575C32.7815 35.9209 33.2905 34.9687 34.0378 34.2214C34.7851 33.4741 35.7373 32.9651 36.7739 32.7589C37.8105 32.5527 38.8849 32.6586 39.8614 33.063C40.8378 33.4675 41.6724 34.1524 42.2596 35.0312C42.8468 35.9099 43.1602 36.9431 43.1602 38C43.1586 39.4168 42.5951 40.775 41.5933 41.7768C40.5915 42.7787 39.2332 43.3422 37.8164 43.3438V43.3438Z" fill="black"/>
</g>
<defs>
<clipPath id="clip0_53_196">
<rect width="24" height="24" fill="white" transform="translate(25.8164 26)"/>
</clipPath>
</defs>
</svg>
