<svg width="78" height="77" viewBox="0 0 78 77" fill="none" xmlns="http://www.w3.org/2000/svg">
<rect x="-5.96046e-08" y="-0.707107" width="53" height="53" transform="matrix(0.707107 -0.707107 -0.707107 -0.707107 38.5 75.1601)" stroke="#ED6726"/>
<path d="M48.4743 38.7754C48.2798 38.7754 48.1221 38.9331 48.1221 39.1277V48.6471C48.1221 49.0049 47.831 49.2959 47.4732 49.2959H39.1777C38.8199 49.2959 38.5289 49.0048 38.5289 48.6471V47.7108C38.5289 47.5163 38.3711 47.3586 38.1766 47.3586C37.9821 47.3586 37.8243 47.5163 37.8243 47.7108V48.6471C37.8243 48.8821 37.8846 49.1032 37.9904 49.2959H27.2595C27.1947 49.2959 27.142 49.2432 27.142 49.1785V40.6802C27.142 40.4856 26.9843 40.3279 26.7898 40.3279C26.5952 40.3279 26.4375 40.4856 26.4375 40.6802V49.1785C26.4375 49.6317 26.8062 50.0005 27.2594 50.0005H47.4731C48.2194 50.0005 48.8265 49.3933 48.8265 48.6471V39.1277C48.8265 38.9331 48.6689 38.7754 48.4743 38.7754Z" fill="black"/>
<path d="M47.4731 33.5648H44.068V30.7172C44.0682 30.6247 44.0302 30.5334 43.9648 30.4681L39.5999 26.1032C39.5346 26.0378 39.4433 25.9998 39.3508 26H27.2594C26.8062 26 26.4375 26.3687 26.4375 26.8219V39.2707C26.4375 39.4652 26.5952 39.623 26.7898 39.623C26.9843 39.623 27.142 39.4652 27.142 39.2707V26.8219C27.142 26.7572 27.1947 26.7045 27.2595 26.7045H38.9985V29.7778C38.9985 30.49 39.578 31.0694 40.2901 31.0694H43.3635V33.5647H39.1777C38.4315 33.5647 37.8243 34.1719 37.8243 34.9181V34.9732H32.2425C32.0479 34.9732 31.8902 35.1309 31.8902 35.3255C31.8902 35.52 32.0479 35.6778 32.2425 35.6778H37.8243V38.0705H32.2425C32.0479 38.0705 31.8902 38.2282 31.8902 38.4227C31.8902 38.6173 32.0479 38.775 32.2425 38.775H37.8243V41.1677H32.2425C32.0479 41.1677 31.8902 41.3254 31.8902 41.5199C31.8902 41.7145 32.0479 41.8722 32.2425 41.8722H37.8243V44.2649H32.2425C32.0479 44.2649 31.8902 44.4226 31.8902 44.6172C31.8902 44.8118 32.0479 44.9695 32.2425 44.9695H37.8243V46.3015C37.8243 46.496 37.982 46.6537 38.1766 46.6537C38.3712 46.6537 38.5289 46.496 38.5289 46.3015V34.9181C38.5289 34.5603 38.82 34.2693 39.1777 34.2693H47.4732C47.831 34.2693 48.1221 34.5604 48.1221 34.9181V37.7182C48.1221 37.9127 48.2798 38.0705 48.4743 38.0705C48.6689 38.0705 48.8266 37.9128 48.8266 37.7182V34.9181C48.8265 34.1719 48.2194 33.5648 47.4731 33.5648ZM39.703 29.7778V27.2027L42.8653 30.365H40.2901C39.9664 30.365 39.703 30.1016 39.703 29.7778Z" fill="black"/>
<path d="M47.1019 36.0114C47.1019 35.5582 46.7332 35.1895 46.28 35.1895H40.4313C39.9781 35.1895 39.6094 35.5582 39.6094 36.0114V38.0003C39.6094 38.4535 39.9781 38.8222 40.4313 38.8222H46.28C46.7332 38.8222 47.1019 38.4535 47.1019 38.0003V36.0114ZM46.3974 38.0002C46.3974 38.065 46.3447 38.1176 46.28 38.1176H40.4313C40.3665 38.1176 40.3139 38.065 40.3139 38.0002V36.0113C40.3139 35.9466 40.3665 35.8939 40.4313 35.8939H46.28C46.3447 35.8939 46.3974 35.9466 46.3974 36.0113V38.0002Z" fill="black"/>
<path d="M39.6094 41.715C39.6094 42.1487 39.9622 42.5015 40.3958 42.5015H41.0666C41.5002 42.5015 41.853 42.1487 41.853 41.715V41.0443C41.853 40.6106 41.5002 40.2578 41.0666 40.2578H40.3958C39.9622 40.2578 39.6094 40.6106 39.6094 41.0443V41.715ZM40.3139 41.0443C40.3139 40.9991 40.3507 40.9623 40.3958 40.9623H41.0666C41.1118 40.9623 41.1486 40.9991 41.1486 41.0443V41.7151C41.1486 41.7603 41.1118 41.797 41.0666 41.797H40.3958C40.3507 41.797 40.3139 41.7603 40.3139 41.7151V41.0443Z" fill="black"/>
<path d="M44.478 41.0443C44.478 40.6106 44.1252 40.2578 43.6916 40.2578H43.0208C42.5872 40.2578 42.2344 40.6106 42.2344 41.0443V41.715C42.2344 42.1487 42.5872 42.5015 43.0208 42.5015H43.6916C44.1252 42.5015 44.478 42.1487 44.478 41.715V41.0443ZM43.7735 41.715C43.7735 41.7602 43.7367 41.797 43.6915 41.797H43.0208C42.9757 41.797 42.9389 41.7602 42.9389 41.715V41.0442C42.9389 40.999 42.9757 40.9623 43.0208 40.9623H43.6916C43.7368 40.9623 43.7736 40.999 43.7736 41.0442V41.715H43.7735Z" fill="black"/>
<path d="M47.103 41.0443C47.103 40.6106 46.7502 40.2578 46.3166 40.2578H45.6458C45.2122 40.2578 44.8594 40.6106 44.8594 41.0443V41.715C44.8594 42.1487 45.2122 42.5015 45.6458 42.5015H46.3166C46.7502 42.5015 47.103 42.1487 47.103 41.715V41.0443ZM46.3986 41.715C46.3986 41.7602 46.3618 41.797 46.3166 41.797H45.6458C45.6007 41.797 45.5639 41.7602 45.5639 41.715V41.0442C45.5639 40.999 45.6007 40.9623 45.6458 40.9623H46.3166C46.3618 40.9623 46.3986 40.999 46.3986 41.0442V41.715Z" fill="black"/>
<path d="M39.6094 44.5861C39.6094 45.0198 39.9622 45.3726 40.3958 45.3726H41.0666C41.5002 45.3726 41.853 45.0198 41.853 44.5861V43.9154C41.853 43.4817 41.5002 43.1289 41.0666 43.1289H40.3958C39.9622 43.1289 39.6094 43.4817 39.6094 43.9154V44.5861ZM40.3139 43.9154C40.3139 43.8702 40.3507 43.8334 40.3958 43.8334H41.0666C41.1118 43.8334 41.1486 43.8701 41.1486 43.9154V44.5861C41.1486 44.6313 41.1118 44.6681 41.0666 44.6681H40.3958C40.3507 44.6681 40.3139 44.6313 40.3139 44.5861V43.9154Z" fill="black"/>
<path d="M44.478 43.9154C44.478 43.4817 44.1252 43.1289 43.6916 43.1289H43.0208C42.5872 43.1289 42.2344 43.4817 42.2344 43.9154V44.5861C42.2344 45.0198 42.5872 45.3726 43.0208 45.3726H43.6916C44.1252 45.3726 44.478 45.0198 44.478 44.5861V43.9154ZM43.7735 44.5861C43.7735 44.6313 43.7367 44.6681 43.6915 44.6681H43.0208C42.9757 44.6681 42.9389 44.6313 42.9389 44.5861V43.9154C42.9389 43.8702 42.9757 43.8334 43.0208 43.8334H43.6916C43.7368 43.8334 43.7736 43.8701 43.7736 43.9154V44.5861H43.7735Z" fill="black"/>
<path d="M39.6094 47.4592C39.6094 47.8928 39.9622 48.2456 40.3958 48.2456H41.0666C41.5002 48.2456 41.853 47.8928 41.853 47.4592V46.7884C41.853 46.3548 41.5002 46.002 41.0666 46.002H40.3958C39.9622 46.002 39.6094 46.3547 39.6094 46.7884V47.4592ZM40.3139 46.7885C40.3139 46.7433 40.3507 46.7065 40.3958 46.7065H41.0666C41.1118 46.7065 41.1486 46.7432 41.1486 46.7885V47.4592C41.1486 47.5044 41.1118 47.5412 41.0666 47.5412H40.3958C40.3507 47.5412 40.3139 47.5044 40.3139 47.4592V46.7885Z" fill="black"/>
<path d="M43.6915 46.002H43.0208C42.5872 46.002 42.2344 46.3547 42.2344 46.7884V47.4592C42.2344 47.8928 42.5872 48.2456 43.0208 48.2456H43.6916C44.1252 48.2456 44.478 47.8928 44.478 47.4592V46.7884C44.478 46.3547 44.1252 46.002 43.6915 46.002ZM43.7735 47.4591C43.7735 47.5043 43.7367 47.5411 43.6915 47.5411H43.0208C42.9757 47.5411 42.9389 47.5043 42.9389 47.4591V46.7884C42.9389 46.7432 42.9757 46.7064 43.0208 46.7064H43.6916C43.7368 46.7064 43.7736 46.7431 43.7736 46.7884V47.4591H43.7735Z" fill="black"/>
<path d="M46.2501 43.1289H45.7124C45.242 43.1289 44.8594 43.5115 44.8594 43.9819V47.3917C44.8594 47.862 45.242 48.2447 45.7124 48.2447H46.2501C46.7204 48.2447 47.103 47.862 47.103 47.3917V43.9819C47.103 43.5115 46.7204 43.1289 46.2501 43.1289ZM46.3986 47.3917C46.3986 47.4736 46.332 47.5402 46.2501 47.5402H45.7124C45.6305 47.5402 45.5639 47.4736 45.5639 47.3917V43.9819C45.5639 43.9 45.6305 43.8334 45.7124 43.8334H46.2501C46.332 43.8334 46.3986 43.9 46.3986 43.9819V47.3917Z" fill="black"/>
<path d="M29.2507 32.5795H30.6568C30.8513 32.5795 31.0091 32.4218 31.0091 32.2273C31.0091 32.0327 30.8514 31.875 30.6568 31.875H29.2507C29.0562 31.875 28.8984 32.0327 28.8984 32.2273C28.8984 32.4218 29.0562 32.5795 29.2507 32.5795Z" fill="black"/>
<path d="M32.2429 32.5795H39.0224C39.217 32.5795 39.3747 32.4218 39.3747 32.2273C39.3747 32.0327 39.217 31.875 39.0224 31.875H32.2429C32.0484 31.875 31.8906 32.0327 31.8906 32.2273C31.8907 32.4218 32.0484 32.5795 32.2429 32.5795Z" fill="black"/>
<path d="M29.2507 35.6772H30.6568C30.8513 35.6772 31.0091 35.5195 31.0091 35.3249C31.0091 35.1304 30.8514 34.9727 30.6568 34.9727H29.2507C29.0562 34.9727 28.8984 35.1303 28.8984 35.3249C28.8984 35.5195 29.0562 35.6772 29.2507 35.6772Z" fill="black"/>
<path d="M29.2507 38.7748H30.6568C30.8513 38.7748 31.0091 38.6171 31.0091 38.4226C31.0091 38.228 30.8514 38.0703 30.6568 38.0703H29.2507C29.0562 38.0703 28.8984 38.228 28.8984 38.4226C28.8984 38.6171 29.0562 38.7748 29.2507 38.7748Z" fill="black"/>
<path d="M29.2507 41.8725H30.6568C30.8513 41.8725 31.0091 41.7148 31.0091 41.5202C31.0091 41.3257 30.8514 41.168 30.6568 41.168H29.2507C29.0562 41.168 28.8984 41.3257 28.8984 41.5202C28.8984 41.7148 29.0562 41.8725 29.2507 41.8725Z" fill="black"/>
<path d="M29.2507 44.9702H30.6568C30.8513 44.9702 31.0091 44.8125 31.0091 44.6179C31.0091 44.4233 30.8514 44.2656 30.6568 44.2656H29.2507C29.0562 44.2656 28.8984 44.4233 28.8984 44.6179C28.8984 44.8125 29.0562 44.9702 29.2507 44.9702Z" fill="black"/>
</svg>
