<svg width="78" height="77" viewBox="0 0 78 77" fill="none" xmlns="http://www.w3.org/2000/svg">
<rect x="-5.96046e-08" y="-0.707107" width="53" height="53" transform="matrix(0.707107 -0.707107 -0.707107 -0.707107 38.5 75.1601)" stroke="#ED6726"/>
<g clip-path="url(#clip0_53_180)">
<path d="M47.4208 44.6432C47.0141 44.6435 46.6164 44.5232 46.2781 44.2975C45.9398 44.0717 45.6761 43.7507 45.5202 43.3751C45.3644 42.9994 45.3234 42.586 45.4026 42.1871C45.4818 41.7881 45.6775 41.4217 45.9649 41.134C46.2524 40.8463 46.6188 40.6503 47.0176 40.5709C47.4165 40.4914 47.83 40.532 48.2057 40.6876C48.5815 40.8432 48.9027 41.1067 49.1287 41.4448C49.3547 41.783 49.4753 42.1805 49.4753 42.5872C49.475 43.1322 49.2585 43.6548 48.8733 44.0402C48.4881 44.4257 47.9657 44.6426 47.4208 44.6432ZM47.4208 41.2812C47.1624 41.281 46.9098 41.3573 46.6948 41.5006C46.4798 41.6439 46.3122 41.8478 46.2131 42.0864C46.114 42.325 46.088 42.5877 46.1382 42.8411C46.1884 43.0946 46.3127 43.3274 46.4953 43.5102C46.6779 43.693 46.9106 43.8175 47.1639 43.868C47.4173 43.9186 47.68 43.8928 47.9187 43.794C48.1574 43.6952 48.3615 43.5278 48.5051 43.313C48.6486 43.0982 48.7253 42.8456 48.7253 42.5872C48.7252 42.2412 48.5877 41.9093 48.3431 41.6644C48.0986 41.4196 47.7669 41.2818 47.4208 41.2812Z" fill="black"/>
<path d="M36.5893 44.6432C36.1825 44.6436 35.7848 44.5234 35.4465 44.2977C35.1081 44.072 34.8442 43.7511 34.6883 43.3754C34.5324 42.9998 34.4914 42.5863 34.5705 42.1874C34.6496 41.7884 34.8453 41.4219 35.1327 41.1341C35.4202 40.8464 35.7865 40.6504 36.1854 40.5709C36.5843 40.4914 36.9978 40.532 37.3736 40.6876C37.7494 40.8431 38.0706 41.1066 38.2966 41.4448C38.5226 41.7829 38.6433 42.1805 38.6433 42.5872C38.6429 43.1321 38.4264 43.6545 38.0413 44.0399C37.6563 44.4253 37.1341 44.6423 36.5893 44.6432ZM36.5893 41.2812C36.3309 41.2809 36.0782 41.3571 35.8631 41.5004C35.6481 41.6436 35.4804 41.8475 35.3812 42.0861C35.2821 42.3247 35.2559 42.5873 35.3061 42.8408C35.3563 43.0943 35.4805 43.3272 35.6631 43.51C35.8456 43.6929 36.0783 43.8175 36.3317 43.868C36.5851 43.9186 36.8478 43.8928 37.0866 43.794C37.3253 43.6952 37.5294 43.5278 37.673 43.313C37.8166 43.0982 37.8933 42.8456 37.8933 42.5872C37.893 42.2413 37.7556 41.9096 37.5111 41.6648C37.2667 41.42 36.9352 41.282 36.5893 41.2812Z" fill="black"/>
<path d="M50.1286 42.9633H49.1031C49.0036 42.9633 48.9082 42.9238 48.8379 42.8535C48.7676 42.7832 48.7281 42.6878 48.7281 42.5883C48.7281 42.4889 48.7676 42.3935 48.8379 42.3232C48.9082 42.2529 49.0036 42.2133 49.1031 42.2133H50.0226V40.2248C50.0223 39.956 49.9535 39.6917 49.8226 39.4568L47.7926 35.8173C47.7752 35.7863 47.7499 35.7604 47.7192 35.7424C47.6886 35.7244 47.6536 35.7149 47.6181 35.7148H44.8516V42.2148H45.7446C45.844 42.2148 45.9394 42.2544 46.0097 42.3247C46.0801 42.395 46.1196 42.4904 46.1196 42.5898C46.1196 42.6893 46.0801 42.7847 46.0097 42.855C45.9394 42.9253 45.844 42.9648 45.7446 42.9648H44.4766C44.3771 42.9648 44.2817 42.9253 44.2114 42.855C44.1411 42.7847 44.1016 42.6893 44.1016 42.5898V35.3398C44.1016 35.2404 44.1411 35.145 44.2114 35.0747C44.2817 35.0044 44.3771 34.9648 44.4766 34.9648H47.6181C47.7872 34.9648 47.9534 35.0099 48.0993 35.0955C48.2452 35.1811 48.3656 35.3041 48.4481 35.4518L50.4776 39.0918C50.6705 39.4383 50.7719 39.8283 50.7721 40.2248V42.3198C50.7718 42.4904 50.7039 42.654 50.5833 42.7746C50.4627 42.8952 50.2991 42.9631 50.1286 42.9633Z" fill="black"/>
<path d="M34.908 42.9621H31.3125C31.213 42.9621 31.1177 42.9226 31.0473 42.8523C30.977 42.782 30.9375 42.6866 30.9375 42.5871V39.7031C30.9375 39.6037 30.977 39.5083 31.0473 39.438C31.1177 39.3676 31.213 39.3281 31.3125 39.3281C31.412 39.3281 31.5073 39.3676 31.5777 39.438C31.648 39.5083 31.6875 39.6037 31.6875 39.7031V42.2121H34.908C35.0075 42.2121 35.1028 42.2516 35.1732 42.322C35.2435 42.3923 35.283 42.4877 35.283 42.5871C35.283 42.6866 35.2435 42.782 35.1732 42.8523C35.1028 42.9226 35.0075 42.9621 34.908 42.9621Z" fill="black"/>
<path d="M31.3125 38.3735C31.213 38.3735 31.1177 38.334 31.0473 38.2636C30.977 38.1933 30.9375 38.0979 30.9375 37.9985V35.4805C30.9375 35.381 30.977 35.2856 31.0473 35.2153C31.1177 35.145 31.213 35.1055 31.3125 35.1055C31.412 35.1055 31.5073 35.145 31.5777 35.2153C31.648 35.2856 31.6875 35.381 31.6875 35.4805V38C31.6871 38.0992 31.6474 38.1942 31.5771 38.2642C31.5069 38.3342 31.4117 38.3735 31.3125 38.3735Z" fill="black"/>
<path d="M44.475 42.9628H38.2665C38.167 42.9628 38.0717 42.9233 38.0013 42.853C37.931 42.7827 37.8915 42.6873 37.8915 42.5878C37.8915 42.4884 37.931 42.393 38.0013 42.3227C38.0717 42.2524 38.167 42.2128 38.2665 42.2128H44.1V32.4023H31.6875V33.9468C31.6875 34.0463 31.648 34.1417 31.5777 34.212C31.5073 34.2823 31.412 34.3218 31.3125 34.3218C31.213 34.3218 31.1177 34.2823 31.0473 34.212C30.977 34.1417 30.9375 34.0463 30.9375 33.9468V32.3333C30.9378 32.1527 31.0097 31.9796 31.1374 31.8519C31.2652 31.7243 31.4384 31.6525 31.619 31.6523H44.169C44.3495 31.6526 44.5226 31.7244 44.6502 31.8521C44.7779 31.9798 44.8497 32.1528 44.85 32.3333V42.5878C44.85 42.6873 44.8105 42.7827 44.7402 42.853C44.6698 42.9233 44.5745 42.9628 44.475 42.9628Z" fill="black"/>
<path d="M32.7947 40.0781H28.0352C27.9357 40.0781 27.8403 40.0386 27.77 39.9683C27.6997 39.898 27.6602 39.8026 27.6602 39.7031C27.6602 39.6037 27.6997 39.5083 27.77 39.438C27.8403 39.3676 27.9357 39.3281 28.0352 39.3281H32.7947C32.8941 39.3281 32.9895 39.3676 33.0598 39.438C33.1301 39.5083 33.1697 39.6037 33.1697 39.7031C33.1697 39.8026 33.1301 39.898 33.0598 39.9683C32.9895 40.0386 32.8941 40.0781 32.7947 40.0781Z" fill="black"/>
<path d="M36.5868 38.373H29.9453C29.8459 38.373 29.7505 38.3335 29.6801 38.2632C29.6098 38.1929 29.5703 38.0975 29.5703 37.998C29.5703 37.8986 29.6098 37.8032 29.6801 37.7329C29.7505 37.6626 29.8459 37.623 29.9453 37.623H36.5868C36.6863 37.623 36.7817 37.6626 36.852 37.7329C36.9223 37.8032 36.9618 37.8986 36.9618 37.998C36.9618 38.0975 36.9223 38.1929 36.852 38.2632C36.7817 38.3335 36.6863 38.373 36.5868 38.373Z" fill="black"/>
<path d="M29.738 36.3945H27.1445C27.0451 36.3945 26.9497 36.355 26.8794 36.2847C26.809 36.2144 26.7695 36.119 26.7695 36.0195C26.7695 35.9201 26.809 35.8247 26.8794 35.7544C26.9497 35.684 27.0451 35.6445 27.1445 35.6445H29.738C29.8375 35.6445 29.9329 35.684 30.0032 35.7544C30.0735 35.8247 30.113 35.9201 30.113 36.0195C30.113 36.119 30.0735 36.2144 30.0032 36.2847C29.9329 36.355 29.8375 36.3945 29.738 36.3945Z" fill="black"/>
<path d="M33.8983 34.3223H29.3203C29.2209 34.3223 29.1255 34.2828 29.0551 34.2124C28.9848 34.1421 28.9453 34.0467 28.9453 33.9473C28.9453 33.8478 28.9848 33.7524 29.0551 33.6821C29.1255 33.6118 29.2209 33.5723 29.3203 33.5723H33.8983C33.9978 33.5723 34.0932 33.6118 34.1635 33.6821C34.2338 33.7524 34.2733 33.8478 34.2733 33.9473C34.2733 34.0467 34.2338 34.1421 34.1635 34.2124C34.0932 34.2828 33.9978 34.3223 33.8983 34.3223Z" fill="black"/>
</g>
<defs>
<clipPath id="clip0_53_180">
<rect width="24" height="24" fill="white" transform="translate(26.8164 26)"/>
</clipPath>
</defs>
</svg>
