<svg width="78" height="77" viewBox="0 0 78 77" fill="none" xmlns="http://www.w3.org/2000/svg">
<rect x="-5.96046e-08" y="-0.707107" width="53" height="53" transform="matrix(0.707107 -0.707107 -0.707107 -0.707107 38.5 75.1601)" stroke="#ED6726"/>
<g clip-path="url(#clip0_53_206)">
<path d="M49.8162 28.3832C49.8177 28.0573 49.688 27.7444 49.4562 27.5152L48.301 26.36C48.0729 26.1294 47.7619 25.9997 47.4374 26H47.4334C47.111 26.0002 46.8021 26.1299 46.5762 26.36L41.3363 31.6H31.0164V27.2C31.0164 26.5372 30.4791 26 29.8164 26H29.0164C27.2499 26.002 25.8184 27.4335 25.8164 29.2V46.9002C25.9165 48.6532 27.3766 50.018 29.1324 49.9998H48.6162C49.279 49.9998 49.8162 49.4626 49.8162 48.7998V32.8C49.8162 32.1372 49.279 31.6 48.6162 31.6H47.0963L49.4562 29.24C49.6859 29.0139 49.8155 28.7054 49.8162 28.3832ZM40.1283 35.9999C40.0436 36.0115 39.9585 35.9817 39.8995 35.9199C39.84 35.8608 39.8105 35.7778 39.8195 35.6943L39.9711 34.3344C39.9775 34.3059 39.9855 34.2779 39.9951 34.2504L41.5707 35.826C41.5447 35.8316 41.5211 35.8444 41.4939 35.8476L40.1283 35.9999ZM42.2239 35.3467L40.4735 33.5959L44.8335 29.236L46.583 30.9852L42.2239 35.3467ZM45.3975 28.67L45.9907 28.0772L47.7394 29.8263L47.1466 30.4195L45.3975 28.67ZM26.6164 29.2C26.6177 27.8751 27.6915 26.8013 29.0164 26.8H29.8164C30.0373 26.8 30.2164 26.9791 30.2164 27.2V43.1998C30.2164 43.4207 30.0373 43.5998 29.8164 43.5998H29.0164C28.0974 43.5995 27.2229 43.9951 26.6164 44.6854V29.2ZM48.6162 32.3999C48.8371 32.3999 49.0163 32.579 49.0163 32.8V48.7998C49.0163 49.0207 48.8372 49.1999 48.6162 49.1999H29.1324C27.8119 49.222 26.7057 48.2055 26.6164 46.8878V46.7998C26.6177 45.4749 27.6915 44.4012 29.0164 44.3998H29.8164C30.4791 44.3998 31.0163 43.8626 31.0163 43.1999V32.3999H40.5363L39.6279 33.3083C39.3743 33.5582 39.2147 33.888 39.1763 34.2419L39.0247 35.6047C39.0122 35.7376 39.0248 35.8716 39.0619 35.9999H32.2164C31.9955 35.9999 31.8163 36.179 31.8163 36.3999C31.8163 36.6208 31.9954 36.7999 32.2164 36.7999H33.4164V47.5998C33.4164 47.8207 33.5954 47.9998 33.8164 47.9998C34.0373 47.9998 34.2164 47.8208 34.2164 47.5998V41.9999H38.6163V45.1998H35.8163C35.5954 45.1998 35.4164 45.3789 35.4164 45.5998C35.4164 45.8207 35.5954 45.9998 35.8163 45.9998H43.8163C44.2581 45.9998 44.6163 45.6417 44.6163 45.1998V39.1999C44.6163 38.979 44.4372 38.7999 44.2163 38.7999C43.9954 38.7999 43.8163 38.979 43.8163 39.1999V41.1999H34.2164V36.7999H40.0995C40.1385 36.8 40.1775 36.7979 40.2163 36.7935L41.5831 36.6379C41.93 36.5986 42.2538 36.4444 42.5031 36.1999L46.2983 32.4H48.6162V32.3999ZM43.8163 41.9999V45.1998H39.4163V41.9999H43.8163ZM48.8922 28.6728L48.305 29.2604L46.5563 27.5116L47.1438 26.924C47.2207 26.8451 47.3261 26.8004 47.4362 26.8C47.5484 26.8003 47.6557 26.8455 47.7342 26.9256L48.891 28.08C48.9715 28.1592 49.0166 28.2675 49.0163 28.3804C49.0159 28.4906 48.9712 28.596 48.8922 28.6728Z" fill="black"/>
</g>
<defs>
<clipPath id="clip0_53_206">
<rect width="24" height="24" fill="white" transform="translate(25.8164 26)"/>
</clipPath>
</defs>
</svg>
