<svg width="78" height="77" viewBox="0 0 78 77" fill="none" xmlns="http://www.w3.org/2000/svg">
<rect x="-5.96046e-08" y="-0.707107" width="53" height="53" transform="matrix(0.707107 -0.707107 -0.707107 -0.707107 38.5 75.1601)" stroke="#ED6726"/>
<g clip-path="url(#clip0_53_216)">
<path d="M33.582 30.8117C33.7762 30.8117 33.9335 30.6544 33.9335 30.4602V29.5781H34.8073C35.0015 29.5781 35.1589 29.4208 35.1589 29.2266C35.1589 29.0324 35.0015 28.875 34.8073 28.875H33.8454C33.5063 28.875 33.2305 29.1509 33.2305 29.49V30.4601C33.2304 30.6543 33.3878 30.8117 33.582 30.8117Z" fill="black"/>
<path d="M45.8594 29.5781H46.717V30.4601C46.717 30.6543 46.8744 30.8117 47.0686 30.8117C47.2628 30.8117 47.4201 30.6543 47.4201 30.4601V29.49C47.4201 29.1509 47.1443 28.875 46.8052 28.875H45.8594C45.6652 28.875 45.5078 29.0324 45.5078 29.2266C45.5078 29.4208 45.6652 29.5781 45.8594 29.5781Z" fill="black"/>
<path d="M45.8594 43.0643H46.8052C47.1443 43.0643 47.4201 42.7885 47.4201 42.4494V41.5117C47.4201 41.3175 47.2628 41.1602 47.0686 41.1602C46.8744 41.1602 46.717 41.3175 46.717 41.5117V42.3612H45.8594C45.6652 42.3612 45.5078 42.5185 45.5078 42.7128C45.5078 42.907 45.6652 43.0643 45.8594 43.0643Z" fill="black"/>
<path d="M33.8454 43.0643H34.8074C35.0016 43.0643 35.159 42.907 35.159 42.7128C35.159 42.5185 35.0016 42.3612 34.8074 42.3612H33.9336V41.5117C33.9336 41.3175 33.7762 41.1602 33.582 41.1602C33.3878 41.1602 33.2305 41.3175 33.2305 41.5117V42.4494C33.2305 42.7885 33.5063 43.0643 33.8454 43.0643Z" fill="black"/>
<path d="M48.8607 45.027H31.042C30.9027 45.027 30.7894 44.9137 30.7894 44.7744V26.9557C30.7894 26.4287 30.3607 26 29.8337 26H26.7721C26.2451 26 25.8164 26.4287 25.8164 26.9557V32.6743C25.8164 32.8685 25.9738 33.0259 26.168 33.0259C26.3622 33.0259 26.5195 32.8685 26.5195 32.6743V26.9557C26.5195 26.8164 26.6328 26.7031 26.7721 26.7031H29.8337C29.973 26.7031 30.0863 26.8164 30.0863 26.9557V28.664H28.8945C28.7003 28.664 28.543 28.8214 28.543 29.0156C28.543 29.2098 28.7003 29.3672 28.8945 29.3672H30.0863V30.9043H29.3555C29.1613 30.9043 29.0039 31.0617 29.0039 31.2559C29.0039 31.4501 29.1613 31.6074 29.3555 31.6074H30.0863V33.1445H28.8945C28.7003 33.1445 28.543 33.3019 28.543 33.4961C28.543 33.6903 28.7003 33.8476 28.8945 33.8476H30.0863V35.3847H29.3555C29.1613 35.3847 29.0039 35.5421 29.0039 35.7363C29.0039 35.9305 29.1613 36.0879 29.3555 36.0879H30.0863V37.625H28.8945C28.7003 37.625 28.543 37.7823 28.543 37.9765C28.543 38.1707 28.7003 38.3281 28.8945 38.3281H30.0863V39.8652H29.3555C29.1613 39.8652 29.0039 40.0226 29.0039 40.2168C29.0039 40.411 29.1613 40.5683 29.3555 40.5683H30.0863V42.1055H28.8945C28.7003 42.1055 28.543 42.2628 28.543 42.457C28.543 42.6512 28.7003 42.8086 28.8945 42.8086H30.0863V44.7744C30.0863 44.9093 30.1144 45.0377 30.165 45.1542L26.5195 48.7997V34.3178C26.5195 34.1236 26.3622 33.9663 26.168 33.9663C25.9738 33.9663 25.8164 34.1236 25.8164 34.3178V49.0443C25.8164 49.571 26.2448 50 26.7721 50H48.8608C49.3877 50 49.8165 49.5713 49.8165 49.0443V45.9827C49.8164 45.4557 49.3877 45.027 48.8607 45.027ZM49.1133 49.0443C49.1133 49.1836 49 49.2969 48.8607 49.2969H27.0167L30.6622 45.6514C30.7786 45.702 30.9071 45.7301 31.0419 45.7301H32.7846V46.9226C32.7846 47.1168 32.942 47.2741 33.1362 47.2741C33.3304 47.2741 33.4877 47.1168 33.4877 46.9226V45.7301H35.0249V46.4616C35.0249 46.6558 35.1822 46.8132 35.3764 46.8132C35.5706 46.8132 35.728 46.6558 35.728 46.4616V45.7301H37.2651V46.9226C37.2651 47.1168 37.4224 47.2741 37.6166 47.2741C37.8108 47.2741 37.9682 47.1168 37.9682 46.9226V45.7301H39.5053V46.4616C39.5053 46.6558 39.6627 46.8132 39.8569 46.8132C40.0511 46.8132 40.2084 46.6558 40.2084 46.4616V45.7301H41.7455V46.9226C41.7455 47.1168 41.9029 47.2741 42.0971 47.2741C42.2913 47.2741 42.4486 47.1168 42.4486 46.9226V45.7301H43.9858V46.4616C43.9858 46.6558 44.1431 46.8132 44.3373 46.8132C44.5315 46.8132 44.6889 46.6558 44.6889 46.4616V45.7301H46.226V46.9226C46.226 47.1168 46.3833 47.2741 46.5775 47.2741C46.7717 47.2741 46.9291 47.1168 46.9291 46.9226V45.7301H48.8607C49 45.7301 49.1133 45.8434 49.1133 45.9827V49.0443Z" fill="black"/>
<path d="M35.771 39.2084L39.7949 41.5316C40.1212 41.7199 40.5264 41.72 40.8526 41.5316L44.8765 39.2084C45.2027 39.0201 45.4053 38.6691 45.4053 38.2924V33.646C45.4053 33.2699 45.203 32.9185 44.8765 32.7301L40.8526 30.4069C40.5264 30.2185 40.1211 30.2185 39.7949 30.4069L35.7711 32.7301C35.4451 32.9182 35.2422 33.2692 35.2422 33.646V38.2925C35.2422 38.6691 35.4448 39.0201 35.771 39.2084ZM36.1225 38.5995C36.0132 38.5363 35.9453 38.4187 35.9453 38.2924V33.8473L39.9722 36.1722V40.822L36.1225 38.5995ZM40.1465 31.0158C40.2558 30.9526 40.3916 30.9526 40.501 31.0158L44.3506 33.2384L43.0247 34.0038C42.8566 34.1009 42.799 34.3159 42.8961 34.4841C42.9936 34.6531 43.209 34.7094 43.3763 34.6127L44.7022 33.8473V38.2924C44.7022 38.4187 44.6343 38.5363 44.5249 38.5995L40.6753 40.822V36.1722L41.9286 35.4486C42.0967 35.3515 42.1543 35.1365 42.0572 34.9684C41.9602 34.8002 41.7451 34.7427 41.577 34.8397L40.3238 35.5633L36.2969 33.2384L40.1465 31.0158Z" fill="black"/>
</g>
<defs>
<clipPath id="clip0_53_216">
<rect width="24" height="24" fill="white" transform="translate(25.8164 26)"/>
</clipPath>
</defs>
</svg>
