<svg width="160" height="43" viewBox="0 0 160 43" fill="none" xmlns="http://www.w3.org/2000/svg">
<path d="M15.8347 0.047304L16.6739 0H16.7138C19.058 0 20.8828 1.00917 22.188 3.0275C22.3745 3.3744 22.4811 3.54785 22.5077 3.54785L24.0261 1.79758L25.5445 0H25.8642C26.2105 0 26.4103 0.0946088 26.4635 0.283827C26.4902 0.346901 26.0506 2.58599 25.1449 7.0011C24.1859 11.5424 23.7064 13.7657 23.7064 13.6711C23.6532 13.8603 23.2802 13.9549 22.5876 13.9549H21.7485L21.6286 13.813C21.5221 13.6868 21.4954 13.403 21.5487 12.9615C21.7618 11.3216 21.8018 9.76054 21.6686 8.27833C21.3756 5.18775 20.35 3.35864 18.5918 2.79098C18.3521 2.72791 17.9791 2.69637 17.473 2.69637C16.4874 2.66483 15.4485 2.85405 14.3563 3.26403C13.051 3.76861 11.8789 4.52549 10.84 5.53466C8.46917 7.67913 6.71102 11.1008 5.56556 15.7998C4.84632 18.9219 4.4867 21.4921 4.4867 23.5105C4.4867 24.9611 4.64653 26.1753 4.9662 27.1529C5.6588 29.2974 6.96409 30.7008 8.88207 31.363C9.06854 31.4261 9.25501 31.4734 9.44148 31.5049C11.9721 32.1357 14.2764 31.2527 16.3542 28.8559C17.8992 26.9637 19.0181 24.6615 19.7107 21.9494C19.8438 21.4133 19.977 21.1294 20.1102 21.0979C20.1902 21.0664 20.4565 21.0506 20.9094 21.0506C21.5754 21.0506 21.9483 21.1452 22.0282 21.3344C22.0549 21.4606 22.0282 21.6813 21.9483 21.9967C21.0692 25.7811 19.3244 28.8874 16.7138 31.3157C15.9679 32.0095 15.1821 32.593 14.3563 33.066C12.7047 33.9806 11.0531 34.4221 9.40152 34.3905C8.25606 34.359 7.13724 34.0752 6.04506 33.5391C4.23363 32.7191 2.82179 31.3473 1.80952 29.4235C0.877171 27.7836 0.304441 25.8441 0.0913325 23.6051C-0.015222 22.8166 -0.0285414 21.7129 0.0513745 20.2937C0.0780132 20.136 0.0913325 20.0099 0.0913325 19.9153C0.410996 16.3832 1.4499 13.0246 3.20805 9.83938C3.74082 8.95636 4.207 8.23102 4.60657 7.66336C5.32582 6.62266 6.21821 5.56619 7.28375 4.49395C10.0009 1.87642 12.8512 0.394206 15.8347 0.047304Z" fill="#ED6726"/>
<path d="M36.4458 12.4884C36.4991 12.4569 36.7788 12.4411 37.285 12.4411C38.0042 12.4727 38.6435 12.5988 39.2029 12.8196C41.4139 13.7026 42.7858 15.6106 43.3186 18.5435C43.3719 18.9219 43.3985 19.5211 43.3985 20.341C43.4251 21.3817 43.3452 22.3278 43.1588 23.1793C42.7858 24.9454 42.1465 26.5853 41.2408 28.099C39.5892 30.8427 37.5247 32.6403 35.0473 33.4917C34.3813 33.7125 33.7287 33.8386 33.0894 33.8702C30.7985 33.9648 29.0403 32.9872 27.8149 30.9373C27.6551 30.7165 27.5219 30.48 27.4153 30.2277C26.1367 27.5156 26.1767 24.3304 27.5352 20.6722C28.1746 19.0323 29.027 17.5816 30.0925 16.3201C31.1048 15.1217 32.157 14.223 33.2492 13.6238C34.3147 12.993 35.3803 12.6146 36.4458 12.4884ZM37.6845 14.7591C37.1251 14.6645 36.6723 14.6487 36.326 14.7118C35.0207 14.9956 33.9418 15.7525 33.0894 16.9824C32.3169 18.0862 31.6509 19.9311 31.0915 22.517C31.0382 22.7378 30.9849 22.9586 30.9316 23.1793C30.5054 25.2607 30.2923 26.806 30.2923 27.8152C30.2923 28.4774 30.319 28.919 30.3722 29.1397C30.6919 30.6219 31.4644 31.4419 32.6898 31.5996C33.2226 31.6626 33.782 31.5838 34.368 31.363C35.7799 30.8269 36.8987 29.6128 37.7245 27.7206C38.1773 26.7429 38.6302 25.1346 39.0831 22.8955C39.6691 20.1518 39.8289 18.1966 39.5625 17.0297C39.2962 15.8629 38.6702 15.106 37.6845 14.7591Z" fill="#252525"/>
<path d="M49.8214 12.5358C50.2743 12.3781 50.847 12.3938 51.5396 12.5831C52.2855 12.8353 52.8715 13.2453 53.2978 13.813C53.5908 14.1599 53.8439 14.6329 54.057 15.2321L54.1369 15.4213L54.4565 15.0429C55.5221 13.8445 56.6542 13.0561 57.853 12.6777C59.398 12.2046 60.7965 12.315 62.0485 13.0088C62.5014 13.2611 62.901 13.5922 63.2473 14.0022C63.487 14.3176 63.6602 14.6329 63.7667 14.9483L64.0464 15.6579V15.7998L64.446 15.3267C65.6714 13.7814 67.0566 12.8669 68.6016 12.5831C69.5606 12.3623 70.4397 12.3781 71.2389 12.6304C72.2778 12.8827 73.0636 13.4188 73.5964 14.2387C73.8894 14.6802 74.1291 15.2637 74.3156 15.989C74.3689 16.2728 74.3955 16.7932 74.3955 17.5501C74.3955 18.37 74.3822 18.8904 74.3556 19.1111C74.0625 20.9718 73.3433 23.7627 72.1978 27.484C71.6384 29.3132 71.372 30.5115 71.3987 31.0792C71.4253 31.4261 71.5718 31.6153 71.8382 31.6469C72.4775 31.7099 73.0636 31.3 73.5964 30.4169C74.1291 29.5339 74.5554 28.3828 74.875 26.9637C75.0082 26.4591 75.1414 26.1911 75.2746 26.1595C75.3545 26.128 75.6342 26.1122 76.1137 26.1122C76.6998 26.1122 77.0194 26.1437 77.0727 26.2068C77.2325 26.333 77.2325 26.6641 77.0727 27.2002C76.5666 29.3132 75.7674 30.9846 74.6752 32.2145C74.3289 32.6245 73.9027 33.0029 73.3966 33.3498C72.2245 34.0436 71.079 34.0752 69.9602 33.4444C69.4807 33.1606 69.1211 32.8295 68.8813 32.451C68.3752 31.7257 68.1221 30.8742 68.1221 29.8966C68.1221 29.2974 68.3219 28.3198 68.7215 26.9637C70.0268 22.8009 70.7594 19.8522 70.9192 18.1177C71.0257 17.3608 71.0124 16.6513 70.8792 15.989C70.6928 15.3583 70.4264 14.9641 70.0801 14.8064C69.8137 14.6487 69.4008 14.6172 68.8414 14.7118C67.0832 15.0271 65.5648 16.604 64.2862 19.4422L63.9665 20.1045L62.6879 26.1122C61.8354 30.1804 61.3692 32.2934 61.2893 32.451C60.943 33.271 60.3703 33.744 59.5711 33.8702C59.358 33.9017 59.1583 33.886 58.9718 33.8229C58.3058 33.6021 57.9462 33.1133 57.8929 32.3564C57.8929 32.1041 58.3191 29.9281 59.1716 25.8284C60.0773 21.5394 60.5435 19.3003 60.5701 19.1111C60.7033 18.3542 60.7699 17.6447 60.7699 16.9824C60.7432 16.1309 60.5701 15.5159 60.2504 15.1375C60.1705 14.9798 60.0506 14.8695 59.8908 14.8064C59.7843 14.7433 59.5578 14.7118 59.2115 14.7118C58.7587 14.7118 58.3325 14.7906 57.9329 14.9483C57.187 15.2321 56.4944 15.7525 55.8551 16.5093C55.2157 17.2662 54.603 18.2754 54.017 19.5369L53.7373 20.1045L52.4986 26.1122C51.5929 30.3381 51.0601 32.5772 50.9003 32.8295C50.8736 32.8926 50.8071 32.9872 50.7005 33.1133C50.1411 33.7756 49.4884 34.0121 48.7426 33.8229C48.0766 33.6021 47.717 33.1133 47.6637 32.3564C47.6637 32.0726 48.1698 29.5181 49.1821 24.6931C50.221 19.9311 50.7671 17.3293 50.8204 16.8878C50.9003 16.0678 50.8736 15.4686 50.7405 15.0902C50.6073 14.8064 50.4208 14.6645 50.181 14.6645C50.0212 14.6645 49.8747 14.7275 49.7415 14.8537C49.5284 15.0114 49.302 15.374 49.0622 15.9417C48.7958 16.6986 48.4629 17.9758 48.0633 19.7734C47.9834 19.9626 47.9301 20.073 47.9034 20.1045C47.8502 20.1676 47.5305 20.1991 46.9445 20.1991H46.0654L45.9455 20.0572C45.839 19.9311 45.8523 19.5526 45.9855 18.9219C46.6781 15.9575 47.5571 14.0337 48.6227 13.1507C49.1288 12.7723 49.5284 12.5673 49.8214 12.5358Z" fill="#252525"/>
<path d="M82.5213 12.5358C82.9742 12.3781 83.5469 12.3938 84.2395 12.5831C84.8789 12.7723 85.4249 13.1192 85.8778 13.6238C86.304 14.1283 86.5571 14.5541 86.637 14.901L86.677 15.0429L86.9167 14.7591C87.7958 13.813 88.7548 13.1349 89.7937 12.725C91.019 12.2519 92.2444 12.3623 93.4698 13.0561C94.5087 13.6553 95.3079 14.6329 95.8673 15.989C96.3468 17.1558 96.5865 18.4804 96.5865 19.9626C96.5865 20.7195 96.5732 21.2241 96.5466 21.4763C96.2269 24.3777 95.2945 26.9795 93.7495 29.2816C93.1901 30.1331 92.604 30.8427 91.9914 31.4103C90.8193 32.5772 89.5273 33.3498 88.1154 33.7283C87.3429 33.9175 86.637 33.9175 85.9977 33.7283C85.2518 33.476 84.6524 33.0818 84.1996 32.5457L83.9199 32.2145L82.3615 39.6414C82.3615 39.7044 82.4015 39.736 82.4814 39.736C82.7211 39.8306 83.3604 39.8779 84.3994 39.8779C84.9055 39.8779 85.1852 39.9094 85.2385 39.9725C85.3983 40.0356 85.4782 40.1775 85.4782 40.3982L85.0786 42.2431C84.9721 42.4323 84.719 42.5112 84.3194 42.4796C84.2129 42.4796 84.0131 42.4796 83.7201 42.4796C80.337 42.3535 77.8862 42.3693 76.3678 42.527H76.0482L75.9283 42.385C75.8217 42.2589 75.7685 42.1485 75.7685 42.0539L76.208 40.1144C76.208 40.0513 76.2613 39.9883 76.3678 39.9252L77.2868 39.8779H77.3268C78.0727 39.8463 78.5122 39.7517 78.6454 39.5941C78.7253 39.4994 79.5511 35.7781 81.1228 28.4301C82.6678 21.0821 83.467 17.2189 83.5203 16.8405C83.6002 16.0521 83.5736 15.4686 83.4404 15.0902C83.3338 14.8695 83.1607 14.7275 82.9209 14.6645C82.7611 14.6645 82.6279 14.7118 82.5213 14.8064C82.1218 15.0902 81.7488 15.8629 81.4025 17.1243C81.2693 17.5658 81.0562 18.4488 80.7632 19.7734C80.6833 19.9626 80.63 20.073 80.6034 20.1045C80.5501 20.1676 80.2304 20.1991 79.6444 20.1991H78.7653L78.6454 20.0572C78.5655 19.9626 78.5255 19.8364 78.5255 19.6788L78.7653 18.5908C79.4313 15.8471 80.2837 14.0337 81.3226 13.1507C81.7488 12.8354 82.1484 12.6304 82.5213 12.5358ZM91.6317 14.8064C91.392 14.6802 91.0057 14.6487 90.473 14.7118C89.7004 14.9641 88.9146 15.579 88.1154 16.5567C87.556 17.2189 87.1298 17.8496 86.8368 18.4488C86.8101 18.575 86.4505 20.1991 85.7579 23.3212L84.7989 27.9571L84.8389 28.3828C85.1319 30.0858 85.7046 31.1265 86.5571 31.5049C87.5427 31.9465 88.5683 31.5207 89.6338 30.2277C90.0601 29.6916 90.4197 29.0609 90.7127 28.3355C91.0856 27.484 91.5518 25.7811 92.1112 23.2266C92.6706 20.546 92.9503 18.7011 92.9503 17.692C92.9503 17.0297 92.8837 16.5094 92.7506 16.1309C92.5641 15.5002 92.1911 15.0587 91.6317 14.8064Z" fill="#252525"/>
<path d="M108.923 12.4884L109.722 12.4411H109.762C110.348 12.4727 110.868 12.6304 111.321 12.9142C111.774 13.1665 112.173 13.5134 112.519 13.9549L112.839 14.3333L113.079 14.0968C113.718 13.3715 114.411 13.1823 115.157 13.5292C115.53 13.6868 115.783 13.9549 115.916 14.3333C116.022 14.6802 115.996 15.2952 115.836 16.1782C115.703 16.872 115.29 18.8273 114.597 22.044C113.638 26.6483 113.145 29.0451 113.119 29.2343C113.012 30.1173 112.999 30.7323 113.079 31.0792C113.132 31.2369 113.212 31.363 113.319 31.4576C113.398 31.5523 113.518 31.5996 113.678 31.5996C113.865 31.5996 114.011 31.568 114.118 31.5049C114.624 31.0634 115.143 29.6285 115.676 27.2002C115.809 26.601 115.916 26.2699 115.996 26.2068C116.049 26.1437 116.369 26.1122 116.955 26.1122C117.541 26.1122 117.874 26.1437 117.954 26.2068C118.007 26.2699 118.034 26.396 118.034 26.5853C118.034 26.7745 117.967 27.1529 117.834 27.7206C116.848 31.6942 115.45 33.744 113.638 33.8702C112.28 33.9648 111.187 33.4129 110.362 32.2145C110.228 32.0253 110.109 31.8203 110.002 31.5996C109.949 31.4103 109.909 31.3157 109.882 31.3157L109.602 31.5996C108.67 32.5772 107.751 33.2237 106.845 33.5391C105.114 34.2329 103.556 33.9175 102.17 32.593C102.01 32.4353 101.864 32.2618 101.731 32.0726C101.331 31.5996 100.998 31.0319 100.732 30.3696C99.9327 28.4459 99.7728 26.1911 100.252 23.6051C100.865 20.1676 102.25 17.3293 104.408 15.0902C105.846 13.608 107.352 12.7407 108.923 12.4884ZM109.762 14.7118C108.67 14.491 107.618 15.106 106.606 16.5567C106.339 16.9666 106.1 17.4081 105.886 17.8812C105.487 18.7957 105.007 20.5933 104.448 23.2739C104.102 24.7877 103.849 26.1122 103.689 27.2475C103.582 28.3198 103.582 29.1397 103.689 29.7074C103.955 30.8111 104.475 31.4419 105.247 31.5996C105.7 31.6942 106.246 31.5838 106.885 31.2684C107.844 30.6377 108.75 29.5812 109.602 28.099L109.802 27.7679L110.801 23.0847L111.8 18.3542L111.72 17.9758C111.481 16.1782 110.881 15.106 109.922 14.7591C109.869 14.7275 109.816 14.7118 109.762 14.7118Z" fill="#252525"/>
<path d="M123.338 12.5358C123.791 12.3781 124.363 12.3938 125.056 12.5831C125.695 12.7723 126.241 13.1192 126.694 13.6238C127.094 14.0968 127.36 14.5541 127.493 14.9956L127.653 15.374L127.973 15.0429C129.118 13.6868 130.424 12.8669 131.889 12.5831C132.848 12.3623 133.727 12.3781 134.526 12.6304C135.565 12.8827 136.351 13.4188 136.883 14.2387C137.176 14.6802 137.416 15.2637 137.603 15.989C137.656 16.2728 137.683 16.7932 137.683 17.5501C137.683 18.37 137.669 18.8904 137.643 19.1111C137.35 20.9087 136.63 23.6997 135.485 27.484C135.059 28.8401 134.806 29.7704 134.726 30.275C134.646 31.0634 134.726 31.5049 134.965 31.5996C135.285 31.7257 135.658 31.6469 136.084 31.363C136.91 30.7638 137.603 29.2974 138.162 26.9637C138.295 26.4591 138.428 26.1911 138.562 26.1595C138.642 26.128 138.921 26.1122 139.401 26.1122C139.987 26.1122 140.306 26.1437 140.36 26.2068C140.52 26.333 140.52 26.6641 140.36 27.2002C140.067 28.4301 139.627 29.5812 139.041 30.6535C137.976 32.5457 136.764 33.6021 135.405 33.8229C134.925 33.949 134.433 33.9175 133.927 33.7283C133.154 33.5391 132.568 33.1133 132.168 32.451C131.662 31.7257 131.409 30.8742 131.409 29.8966C131.409 29.2974 131.609 28.3198 132.009 26.9637C133.314 22.8009 134.046 19.8522 134.206 18.1177C134.313 17.3608 134.299 16.6513 134.166 15.989C133.98 15.3583 133.713 14.9641 133.367 14.8064C133.101 14.6487 132.688 14.6172 132.128 14.7118C130.37 15.0271 128.852 16.604 127.573 19.4422L127.254 20.1045L125.975 26.1122C125.122 30.1804 124.656 32.2934 124.576 32.451C124.23 33.271 123.657 33.744 122.858 33.8702C122.645 33.9017 122.445 33.886 122.259 33.8229C121.593 33.6021 121.233 33.1133 121.18 32.3564C121.18 32.0726 121.686 29.5181 122.698 24.6931C123.737 19.9311 124.283 17.3293 124.337 16.8878C124.417 16.0678 124.39 15.4686 124.257 15.0902C124.15 14.8695 123.977 14.7275 123.737 14.6645C123.577 14.6645 123.444 14.7118 123.338 14.8064C122.938 15.0902 122.565 15.8629 122.219 17.1243C122.086 17.5658 121.873 18.4488 121.58 19.7734C121.5 19.9626 121.446 20.073 121.42 20.1045C121.366 20.1676 121.047 20.1991 120.461 20.1991H119.582L119.462 20.0572C119.382 19.9626 119.342 19.8364 119.342 19.6788L119.582 18.5908C120.248 15.8471 121.1 14.0337 122.139 13.1507C122.565 12.8354 122.965 12.6304 123.338 12.5358Z" fill="#252525"/>
<path d="M146.654 12.5358C146.841 12.4727 147.134 12.4411 147.533 12.4411C148.146 12.4727 148.679 12.6304 149.131 12.9142C149.478 13.1349 149.744 13.3715 149.931 13.6238C150.144 13.8445 150.343 14.1599 150.53 14.5699C150.77 15.169 150.876 15.7998 150.85 16.462C150.85 17.0928 150.676 17.96 150.33 19.0638C150.304 19.2215 150.25 19.4107 150.17 19.6315C148.865 23.9204 148.212 26.8533 148.212 28.4301C148.212 28.5563 148.212 28.6667 148.212 28.7613C148.239 29.8335 148.452 30.6219 148.852 31.1265C149.145 31.4419 149.544 31.5996 150.05 31.5996C150.583 31.5996 151.049 31.4734 151.449 31.2211C152.142 30.8111 152.741 30.1489 153.247 29.2343L153.487 28.7613L154.965 21.7602C156.004 16.872 156.604 14.286 156.763 14.0022C156.79 13.9391 156.857 13.8445 156.963 13.7184C157.549 13.0246 158.215 12.788 158.961 13.0088C159.6 13.2611 159.947 13.7499 160 14.4752C160 14.696 159.334 17.9916 158.002 24.3619C156.697 30.5431 155.964 33.9175 155.804 34.4851C155.538 35.5259 155.125 36.5035 154.566 37.418C154.379 37.7965 154.166 38.1591 153.926 38.5061C153.394 39.2945 152.821 39.9725 152.208 40.5402C151.063 41.6755 149.837 42.4166 148.532 42.7635C148.053 42.9212 147.453 43 146.734 43C146.175 43 145.762 42.9685 145.495 42.9054C143.71 42.4323 142.698 41.297 142.458 39.4994C142.379 38.711 142.472 37.9384 142.738 37.1815C143.164 36.1408 143.884 35.5574 144.896 35.4312C145.748 35.3366 146.334 35.6993 146.654 36.5192C146.734 36.6769 146.787 36.9292 146.814 37.2761C146.841 38.0961 146.587 38.853 146.055 39.5468C145.815 39.7675 145.628 39.9252 145.495 40.0198C145.389 40.0829 145.322 40.1302 145.295 40.1617L145.975 40.6348C147.067 41.0763 148.172 40.824 149.291 39.8779C150.676 38.648 151.729 36.5981 152.448 33.7283C152.501 33.3814 152.555 33.1448 152.608 33.0187V32.8295L152.288 33.0187C151.009 33.9017 149.598 34.1067 148.053 33.6337C146.294 33.1291 145.216 31.773 144.816 29.5655C144.709 28.7455 144.709 27.7679 144.816 26.6326C144.843 26.538 144.856 26.4591 144.856 26.396C145.069 24.8192 145.695 22.4067 146.734 19.1584C147.213 17.487 147.48 16.4147 147.533 15.9417C147.666 15.2164 147.6 14.8064 147.333 14.7118C147.014 14.5856 146.641 14.6645 146.215 14.9483C145.655 15.3583 145.216 16.0048 144.896 16.8878C144.63 17.4554 144.337 18.4173 144.017 19.7734C143.937 19.9626 143.884 20.073 143.857 20.1045C143.804 20.1676 143.484 20.1991 142.898 20.1991H142.019L141.899 20.0572C141.819 19.9626 141.779 19.8364 141.779 19.6788C141.832 19.1742 142.059 18.3858 142.458 17.3135C142.778 16.4936 143.111 15.8155 143.457 15.2794C143.804 14.7118 144.243 14.1441 144.776 13.5765C145.362 13.0403 145.988 12.6934 146.654 12.5358Z" fill="#252525"/>
</svg>
