<svg width="223" height="60" viewBox="0 0 223 60" fill="none" xmlns="http://www.w3.org/2000/svg">
<path d="M22.0697 0.0660056L23.2392 0H23.2949C26.5621 0 29.1053 1.40814 30.9246 4.22442C31.1845 4.70847 31.333 4.95049 31.3701 4.95049L33.4864 2.50825L35.6027 0H36.0482C36.5308 0 36.8093 0.132012 36.8836 0.396038C36.9207 0.484048 36.3081 3.60836 35.0457 9.76898C33.7092 16.1056 33.0409 19.2079 33.0409 19.0759C32.9666 19.3399 32.4468 19.4719 31.4815 19.4719H30.312L30.1449 19.2739C29.9964 19.0979 29.9593 18.7019 30.0335 18.0858C30.3305 15.7976 30.3862 13.6194 30.2006 11.5512C29.7922 7.23872 28.3628 4.68647 25.9124 3.89439C25.5782 3.80638 25.0584 3.76238 24.353 3.76238C22.9793 3.71837 21.5313 3.9824 20.0091 4.55445C18.1898 5.25853 16.5562 6.31463 15.1083 7.72277C11.8039 10.7151 9.35349 15.4895 7.757 22.0462C6.75456 26.4026 6.25334 29.989 6.25334 32.8053C6.25334 34.8295 6.4761 36.5237 6.92163 37.8878C7.88695 40.8801 9.7062 42.8383 12.3794 43.7624C12.6393 43.8504 12.8992 43.9164 13.1591 43.9604C16.6862 44.8405 19.8977 43.6084 22.7937 40.264C24.9471 37.6238 26.5064 34.4114 27.4717 30.6271C27.6574 29.879 27.843 29.4829 28.0286 29.4389C28.14 29.3949 28.5113 29.3729 29.1425 29.3729C30.0707 29.3729 30.5904 29.5049 30.7018 29.769C30.739 29.945 30.7018 30.253 30.5904 30.6931C29.3652 35.9736 26.9334 40.308 23.2949 43.6964C22.2553 44.6645 21.16 45.4785 20.0091 46.1386C17.7072 47.4147 15.4053 48.0308 13.1034 47.9868C11.5069 47.9428 9.94753 47.5468 8.4253 46.7987C5.90063 45.6546 3.93287 43.7404 2.52202 41.0561C1.22256 38.7679 0.424315 36.0616 0.127295 32.9373C-0.0212157 31.8372 -0.0397796 30.297 0.0716032 28.3168C0.108731 28.0968 0.127295 27.9208 0.127295 27.7888C0.572825 22.8603 2.0208 18.1738 4.47122 13.7294C5.21377 12.4972 5.8635 11.4851 6.42041 10.6931C7.42286 9.24092 8.66663 7.76678 10.1517 6.27063C13.9387 2.61826 17.9114 0.550056 22.0697 0.0660056Z" fill="#F5F5F5"/>
<path d="M50.7964 17.4257C50.8706 17.3817 51.2605 17.3597 51.9659 17.3597C52.9683 17.4037 53.8594 17.5798 54.6391 17.8878C57.7207 19.1199 59.6327 21.7822 60.3753 25.8746C60.4495 26.4026 60.4867 27.2387 60.4867 28.3828C60.5238 29.835 60.4124 31.1551 60.1525 32.3432C59.6327 34.8075 58.7417 37.0957 57.4793 39.2079C55.1774 43.0363 52.3 45.5446 48.8472 46.7327C47.919 47.0407 47.0094 47.2167 46.1183 47.2607C42.9253 47.3927 40.4749 46.0286 38.7671 43.1683C38.5443 42.8603 38.3587 42.5303 38.2101 42.1782C36.428 38.3938 36.4837 33.9494 38.3772 28.8449C39.2683 26.5567 40.4564 24.5325 41.9415 22.7723C43.3523 21.1001 44.8188 19.846 46.3411 19.0099C47.8262 18.1298 49.3113 17.6018 50.7964 17.4257ZM52.5228 20.5941C51.7431 20.462 51.112 20.44 50.6293 20.5281C48.8101 20.9241 47.3064 21.9802 46.1183 23.6964C45.0416 25.2365 44.1134 27.8108 43.3337 31.4191C43.2595 31.7272 43.1852 32.0352 43.111 32.3432C42.5169 35.2475 42.2199 37.4037 42.2199 38.8119C42.2199 39.736 42.257 40.352 42.3313 40.6601C42.7768 42.7283 43.8535 43.8724 45.5614 44.0924C46.3039 44.1804 47.0836 44.0704 47.9004 43.7624C49.8682 43.0143 51.4275 41.3201 52.5785 38.6799C53.2097 37.3157 53.8408 35.0715 54.472 31.9472C55.2888 28.1188 55.5116 25.3905 55.1403 23.7624C54.769 22.1342 53.8965 21.0781 52.5228 20.5941Z" fill="#F5F5F5"/>
<path d="M69.4386 17.4917C70.0698 17.2717 70.868 17.2937 71.8333 17.5578C72.8729 17.9098 73.6897 18.4818 74.2837 19.2739C74.6921 19.758 75.0449 20.418 75.3419 21.2541L75.4533 21.5182L75.8988 20.9901C77.3839 19.3179 78.9618 18.2178 80.6326 17.6898C82.786 17.0297 84.7352 17.1837 86.4801 18.1518C87.1113 18.5039 87.6682 18.9659 88.1509 19.538C88.485 19.978 88.7264 20.418 88.8749 20.8581L89.2647 21.8482V22.0462L89.8216 21.3861C91.5295 19.2299 93.4601 17.9538 95.6135 17.5578C96.9501 17.2497 98.1753 17.2717 99.2891 17.6238C100.737 17.9758 101.832 18.7239 102.575 19.868C102.983 20.484 103.317 21.2981 103.577 22.3102C103.652 22.7063 103.689 23.4323 103.689 24.4884C103.689 25.6326 103.67 26.3586 103.633 26.6667C103.225 29.2629 102.222 33.1573 100.626 38.3498C99.8461 40.9021 99.4748 42.5743 99.5119 43.3663C99.549 43.8504 99.7532 44.1144 100.125 44.1584C101.016 44.2464 101.832 43.6744 102.575 42.4422C103.317 41.2101 103.912 39.604 104.357 37.6238C104.543 36.9197 104.728 36.5457 104.914 36.5016C105.025 36.4576 105.415 36.4356 106.083 36.4356C106.9 36.4356 107.346 36.4796 107.42 36.5677C107.643 36.7437 107.643 37.2057 107.42 37.9538C106.715 40.9021 105.601 43.2343 104.079 44.9505C103.596 45.5226 103.002 46.0506 102.296 46.5346C100.663 47.5027 99.0664 47.5467 97.507 46.6667C96.8387 46.2706 96.3375 45.8086 96.0034 45.2805C95.2979 44.2684 94.9452 43.0803 94.9452 41.7162C94.9452 40.8801 95.2237 39.516 95.7806 37.6238C97.5998 31.8152 98.6209 27.7008 98.8436 25.2805C98.9921 24.2244 98.9736 23.2343 98.7879 22.3102C98.528 21.4301 98.1568 20.8801 97.6741 20.6601C97.3028 20.44 96.7273 20.396 95.9477 20.5281C93.4973 20.9681 91.381 23.1683 89.5989 27.1287L89.1533 28.0528L87.3712 36.4356C86.1831 42.1122 85.5334 45.0605 85.422 45.2805C84.9394 46.4246 84.1411 47.0847 83.0273 47.2607C82.7303 47.3047 82.4518 47.2827 82.1919 47.1947C81.2637 46.8867 80.7625 46.2046 80.6882 45.1485C80.6882 44.7965 81.2823 41.7602 82.4704 36.0396C83.7327 30.055 84.3824 26.9307 84.4196 26.6667C84.6052 25.6106 84.698 24.6205 84.698 23.6964C84.6609 22.5082 84.4196 21.6502 83.974 21.1221C83.8627 20.9021 83.6956 20.7481 83.4728 20.6601C83.3243 20.5721 83.0087 20.5281 82.5261 20.5281C81.8949 20.5281 81.3009 20.6381 80.7439 20.8581C79.7044 21.2541 78.7391 21.9802 77.848 23.0363C76.9569 24.0924 76.103 25.5006 75.2862 27.2607L74.8964 28.0528L73.1699 36.4356C71.9076 42.3322 71.165 45.4565 70.9423 45.8086C70.9051 45.8966 70.8123 46.0286 70.6638 46.2046C69.8841 47.1287 68.9745 47.4587 67.9349 47.1947C67.0068 46.8867 66.5055 46.2046 66.4313 45.1485C66.4313 44.7525 67.1367 41.1881 68.5475 34.4554C69.9955 27.8108 70.7566 24.1804 70.8309 23.5644C70.9423 22.4202 70.9051 21.5842 70.7195 21.0561C70.5339 20.6601 70.274 20.462 69.9398 20.462C69.7171 20.462 69.5129 20.5501 69.3272 20.7261C69.0302 20.9461 68.7146 21.4521 68.3805 22.2442C68.0092 23.3003 67.5451 25.0825 66.9882 27.5908C66.8768 27.8548 66.8026 28.0088 66.7654 28.0528C66.6912 28.1408 66.2456 28.1848 65.4288 28.1848H64.2036L64.0366 27.9868C63.888 27.8108 63.9066 27.2827 64.0922 26.4026C65.0576 22.2662 66.2828 19.582 67.7679 18.3498C68.4733 17.8218 69.0302 17.5358 69.4386 17.4917Z" fill="#F5F5F5"/>
<path d="M115.014 17.4917C115.645 17.2717 116.444 17.2937 117.409 17.5578C118.3 17.8218 119.061 18.3058 119.692 19.0099C120.286 19.714 120.639 20.308 120.75 20.7921L120.806 20.9901L121.14 20.5941C122.365 19.2739 123.702 18.3278 125.15 17.7558C126.858 17.0957 128.566 17.2497 130.274 18.2178C131.722 19.0539 132.835 20.418 133.615 22.3102C134.283 23.9384 134.617 25.7866 134.617 27.8548C134.617 28.9109 134.599 29.615 134.562 29.967C134.116 34.0154 132.817 37.6458 130.663 40.8581C129.884 42.0462 129.067 43.0363 128.213 43.8284C126.579 45.4565 124.779 46.5347 122.811 47.0627C121.734 47.3267 120.75 47.3267 119.859 47.0627C118.82 46.7107 117.984 46.1606 117.353 45.4125L116.963 44.9505L114.791 55.3135C114.791 55.4015 114.847 55.4455 114.958 55.4455C115.293 55.5776 116.184 55.6436 117.632 55.6436C118.337 55.6436 118.727 55.6876 118.801 55.7756C119.024 55.8636 119.135 56.0616 119.135 56.3696L118.578 58.9439C118.43 59.2079 118.077 59.3179 117.52 59.2739C117.372 59.2739 117.093 59.2739 116.685 59.2739C111.97 59.0979 108.554 59.1199 106.438 59.3399H105.992L105.825 59.1419C105.677 58.9659 105.602 58.8119 105.602 58.6799L106.215 55.9736C106.215 55.8856 106.289 55.7976 106.438 55.7096L107.719 55.6436H107.774C108.814 55.5996 109.426 55.4675 109.612 55.2475C109.723 55.1155 110.874 49.923 113.065 39.67C115.218 29.4169 116.332 24.0264 116.406 23.4983C116.518 22.3982 116.481 21.5842 116.295 21.0561C116.146 20.7481 115.905 20.5501 115.571 20.462C115.348 20.462 115.163 20.5281 115.014 20.6601C114.457 21.0561 113.937 22.1342 113.455 23.8944C113.269 24.5104 112.972 25.7426 112.564 27.5908C112.452 27.8548 112.378 28.0088 112.341 28.0528C112.267 28.1408 111.821 28.1848 111.004 28.1848H109.779L109.612 27.9868C109.501 27.8548 109.445 27.6788 109.445 27.4587L109.779 25.9406C110.707 22.1122 111.895 19.582 113.343 18.3498C113.937 17.9098 114.494 17.6238 115.014 17.4917ZM127.712 20.6601C127.378 20.484 126.839 20.44 126.097 20.5281C125.02 20.8801 123.925 21.7382 122.811 23.1023C122.031 24.0264 121.437 24.9065 121.029 25.7426C120.992 25.9186 120.49 28.1848 119.525 32.5413L118.189 39.0099L118.244 39.604C118.653 41.9802 119.451 43.4323 120.639 43.9604C122.013 44.5765 123.442 43.9824 124.927 42.1782C125.521 41.4301 126.022 40.5501 126.431 39.538C126.951 38.3498 127.6 35.9736 128.38 32.4092C129.16 28.6689 129.55 26.0946 129.55 24.6865C129.55 23.7624 129.457 23.0363 129.271 22.5083C129.011 21.6282 128.491 21.0121 127.712 20.6601Z" fill="#F5F5F5"/>
<path d="M151.812 17.4257L152.926 17.3597H152.981C153.798 17.4037 154.522 17.6238 155.153 18.0198C155.784 18.3718 156.341 18.8559 156.824 19.4719L157.269 20L157.604 19.67C158.495 18.6579 159.46 18.3938 160.5 18.8779C161.019 19.0979 161.372 19.4719 161.558 20C161.706 20.484 161.669 21.3421 161.446 22.5743C161.261 23.5424 160.685 26.2706 159.72 30.7591C158.383 37.1837 157.696 40.5281 157.659 40.7921C157.511 42.0242 157.492 42.8823 157.604 43.3663C157.678 43.5864 157.789 43.7624 157.938 43.8944C158.049 44.0264 158.216 44.0924 158.439 44.0924C158.699 44.0924 158.903 44.0484 159.052 43.9604C159.757 43.3443 160.481 41.3421 161.224 37.9538C161.409 37.1177 161.558 36.6557 161.669 36.5677C161.743 36.4796 162.189 36.4356 163.006 36.4356C163.822 36.4356 164.287 36.4796 164.398 36.5677C164.472 36.6557 164.509 36.8317 164.509 37.0957C164.509 37.3597 164.417 37.8878 164.231 38.6799C162.857 44.2244 160.908 47.0847 158.383 47.2607C156.49 47.3927 154.968 46.6227 153.817 44.9505C153.631 44.6865 153.464 44.4004 153.315 44.0924C153.241 43.8284 153.185 43.6964 153.148 43.6964L152.758 44.0924C151.459 45.4565 150.178 46.3586 148.916 46.7987C146.502 47.7668 144.331 47.3267 142.4 45.4785C142.177 45.2585 141.973 45.0165 141.787 44.7525C141.23 44.0924 140.766 43.3003 140.395 42.3762C139.281 39.692 139.058 36.5457 139.727 32.9373C140.581 28.1408 142.511 24.1804 145.519 21.0561C147.523 18.9879 149.621 17.7778 151.812 17.4257ZM152.981 20.5281C151.459 20.22 149.992 21.0781 148.582 23.1023C148.21 23.6744 147.876 24.2904 147.579 24.9505C147.022 26.2266 146.354 28.7349 145.574 32.4752C145.092 34.5875 144.739 36.4356 144.516 38.0198C144.368 39.5159 144.368 40.6601 144.516 41.4521C144.887 42.9923 145.611 43.8724 146.688 44.0924C147.319 44.2244 148.08 44.0704 148.971 43.6304C150.308 42.7503 151.57 41.2761 152.758 39.2079L153.037 38.7459L154.429 32.2112L155.821 25.6106L155.71 25.0825C155.376 22.5743 154.541 21.0781 153.204 20.5941C153.13 20.5501 153.055 20.5281 152.981 20.5281Z" fill="#F5F5F5"/>
<path d="M171.902 17.4917C172.533 17.2717 173.331 17.2937 174.297 17.5578C175.188 17.8218 175.949 18.3058 176.58 19.0099C177.137 19.67 177.508 20.308 177.694 20.9241L177.917 21.4521L178.362 20.9901C179.959 19.0979 181.778 17.9538 183.82 17.5578C185.156 17.2497 186.382 17.2717 187.495 17.6238C188.943 17.9758 190.039 18.7239 190.781 19.868C191.19 20.484 191.524 21.2981 191.784 22.3102C191.858 22.7063 191.895 23.4323 191.895 24.4884C191.895 25.6326 191.877 26.3586 191.839 26.6667C191.431 29.1749 190.429 33.0693 188.832 38.3498C188.238 40.242 187.885 41.5402 187.774 42.2442C187.663 43.3443 187.774 43.9604 188.108 44.0924C188.554 44.2684 189.073 44.1584 189.667 43.7624C190.818 42.9263 191.784 40.8801 192.563 37.6238C192.749 36.9197 192.935 36.5457 193.12 36.5016C193.232 36.4576 193.622 36.4356 194.29 36.4356C195.107 36.4356 195.552 36.4796 195.626 36.5677C195.849 36.7437 195.849 37.2057 195.626 37.9538C195.218 39.67 194.605 41.2761 193.789 42.7723C192.303 45.4125 190.614 46.8867 188.721 47.1947C188.052 47.3707 187.366 47.3267 186.66 47.0627C185.583 46.7987 184.767 46.2046 184.21 45.2805C183.504 44.2684 183.152 43.0803 183.152 41.7162C183.152 40.8801 183.43 39.516 183.987 37.6238C185.806 31.8152 186.827 27.7008 187.05 25.2805C187.198 24.2244 187.18 23.2343 186.994 22.3102C186.734 21.4301 186.363 20.8801 185.88 20.6601C185.509 20.44 184.934 20.396 184.154 20.5281C181.704 20.9681 179.587 23.1683 177.805 27.1287L177.36 28.0528L175.578 36.4356C174.389 42.1122 173.74 45.0605 173.628 45.2805C173.146 46.4246 172.347 47.0847 171.234 47.2607C170.937 47.3047 170.658 47.2827 170.398 47.1947C169.47 46.8867 168.969 46.2046 168.895 45.1485C168.895 44.7525 169.6 41.1881 171.011 34.4554C172.459 27.8108 173.22 24.1804 173.294 23.5644C173.406 22.4202 173.368 21.5842 173.183 21.0561C173.034 20.7481 172.793 20.5501 172.459 20.462C172.236 20.462 172.05 20.5281 171.902 20.6601C171.345 21.0561 170.825 22.1342 170.343 23.8944C170.157 24.5104 169.86 25.7426 169.451 27.5908C169.34 27.8548 169.266 28.0088 169.229 28.0528C169.154 28.1408 168.709 28.1848 167.892 28.1848H166.667L166.5 27.9868C166.388 27.8548 166.333 27.6788 166.333 27.4587L166.667 25.9406C167.595 22.1122 168.783 19.582 170.231 18.3498C170.825 17.9098 171.382 17.6238 171.902 17.4917Z" fill="#F5F5F5"/>
<path d="M204.399 17.4917C204.659 17.4037 205.067 17.3597 205.624 17.3597C206.478 17.4037 207.221 17.6238 207.852 18.0198C208.335 18.3278 208.706 18.6579 208.966 19.0099C209.263 19.3179 209.541 19.758 209.801 20.33C210.135 21.1661 210.284 22.0462 210.247 22.9703C210.247 23.8504 210.005 25.0605 209.523 26.6007C209.486 26.8207 209.411 27.0847 209.3 27.3927C207.481 33.3773 206.571 37.4697 206.571 39.67C206.571 39.846 206.571 40 206.571 40.132C206.608 41.6282 206.905 42.7283 207.462 43.4323C207.871 43.8724 208.427 44.0924 209.133 44.0924C209.875 44.0924 210.525 43.9164 211.082 43.5644C212.047 42.9923 212.883 42.0682 213.588 40.7921L213.922 40.132L215.983 30.363C217.431 23.5424 218.266 19.934 218.489 19.538C218.526 19.4499 218.619 19.3179 218.767 19.1419C219.584 18.1738 220.512 17.8438 221.552 18.1518C222.443 18.5039 222.926 19.1859 223 20.198C223 20.5061 222.072 25.1045 220.215 33.9934C218.396 42.6183 217.375 47.3267 217.152 48.1188C216.781 49.571 216.206 50.9351 215.426 52.2112C215.166 52.7393 214.869 53.2453 214.535 53.7294C213.792 54.8295 212.994 55.7756 212.14 56.5677C210.544 58.1518 208.836 59.1859 207.017 59.67C206.348 59.89 205.513 60 204.51 60C203.731 60 203.155 59.956 202.784 59.868C200.296 59.2079 198.886 57.6238 198.552 55.1155C198.44 54.0154 198.57 52.9373 198.941 51.8812C199.535 50.429 200.538 49.615 201.949 49.4389C203.137 49.3069 203.954 49.813 204.399 50.9571C204.51 51.1771 204.585 51.5292 204.622 52.0132C204.659 53.1573 204.306 54.2134 203.564 55.1815C203.23 55.4895 202.97 55.7096 202.784 55.8416C202.636 55.9296 202.543 55.9956 202.506 56.0396L203.452 56.6997C204.975 57.3157 206.515 56.9637 208.075 55.6436C210.005 53.9274 211.472 51.0671 212.474 47.0627C212.549 46.5787 212.623 46.2486 212.697 46.0726V45.8086L212.252 46.0726C210.469 47.3047 208.502 47.5908 206.348 46.9307C203.898 46.2266 202.394 44.3344 201.837 41.2541C201.689 40.11 201.689 38.7459 201.837 37.1617C201.874 37.0297 201.893 36.9197 201.893 36.8317C202.19 34.6315 203.062 31.2651 204.51 26.7327C205.179 24.4004 205.55 22.9043 205.624 22.2442C205.81 21.2321 205.717 20.6601 205.346 20.5281C204.9 20.352 204.381 20.462 203.786 20.8581C203.007 21.4301 202.394 22.3322 201.949 23.5644C201.577 24.3564 201.169 25.6986 200.723 27.5908C200.612 27.8548 200.538 28.0088 200.501 28.0528C200.426 28.1408 199.981 28.1848 199.164 28.1848H197.939L197.772 27.9868C197.66 27.8548 197.605 27.6788 197.605 27.4587C197.679 26.7547 197.995 25.6546 198.552 24.1584C198.997 23.0143 199.461 22.0682 199.944 21.3201C200.426 20.5281 201.039 19.736 201.782 18.9439C202.598 18.1958 203.471 17.7118 204.399 17.4917Z" fill="#F5F5F5"/>
</svg>
