<svg width="61" height="61" viewBox="0 0 61 61" fill="none" xmlns="http://www.w3.org/2000/svg">
<rect x="-5.96046e-08" y="-0.70698" width="41.4623" height="41.4623" transform="matrix(0.707234 -0.70698 -0.707234 -0.70698 29.5308 58.8323)" stroke="#ED6726"/>
<g clip-path="url(#clip0_53_1362)">
<path d="M25.4901 21.9758C26.874 21.9564 28.2579 21.9312 29.6419 21.9197C30.6511 21.9113 31.6607 21.9112 32.6697 21.9266C33.2468 21.9353 33.823 21.9993 34.4 22.0073C34.9388 22.0148 35.4807 22.008 36.0167 21.9586C36.6418 21.901 37.089 22.1592 37.4337 22.6437C37.8702 23.2571 38.2873 23.8845 38.7328 24.4911C38.9861 24.836 39.282 25.1495 39.5544 25.4806C39.8248 25.8092 39.8188 26.1581 39.6181 26.5181C39.2153 27.2405 38.7576 27.9235 38.2364 28.5683C37.6004 29.3551 37.0086 30.1777 36.3711 30.9631C35.6685 31.8287 34.936 32.67 34.216 33.5214C33.7472 34.0756 33.2804 34.6315 32.8072 35.1819C32.4964 35.5434 32.1686 35.8904 31.8613 36.2547C31.4743 36.7136 31.1008 37.1838 30.7204 37.6482C30.6461 37.7388 30.562 37.8216 30.4902 37.914C30.2048 38.2819 29.8932 38.2151 29.6186 37.9265C28.974 37.2493 28.2815 36.6113 27.7721 35.8163C27.5711 35.5025 27.405 35.1657 27.1954 34.8582C26.5746 33.9475 25.966 33.0267 25.3039 32.1464C24.5697 31.1702 23.7707 30.243 23.0216 29.2777C22.6083 28.7449 22.2383 28.1784 21.851 27.6255C21.5476 27.1924 21.2508 26.7547 20.9448 26.3235C20.7951 26.1125 20.8036 25.9131 20.9734 25.729C21.3921 25.2751 21.8206 24.83 22.2398 24.3766C22.8081 23.7619 23.376 23.1468 23.935 22.5237C24.2725 22.1476 24.6826 21.9758 25.1846 22.0112C25.286 22.0184 25.3884 22.0123 25.4903 22.0123C25.4902 22.0001 25.4902 21.9879 25.4901 21.9758ZM29.974 36.4272C30.5485 34.8057 31.1235 33.1542 31.719 31.5102C32.3127 29.8712 32.927 28.2396 33.5455 26.5689C33.1784 26.5887 32.8821 26.6237 32.5868 26.6169C31.7268 26.5969 30.867 26.5627 30.0074 26.5284C29.766 26.5187 29.5255 26.474 29.2843 26.4716C28.5062 26.4641 27.728 26.4688 26.9609 26.4688C27.1355 26.9687 27.3274 27.4757 27.4903 27.992C28.0994 29.9223 28.6813 31.8596 29.1575 33.8292C29.3717 34.7151 29.7017 35.5731 29.974 36.4272ZM39.0743 26.5262C38.3145 26.5422 37.6054 26.5614 36.8961 26.5699C36.5763 26.5738 36.2562 26.5499 35.9363 26.5497C35.4196 26.5493 34.9011 26.587 34.3868 26.5543C33.9098 26.524 33.9301 26.4993 33.7697 26.9448C33.1927 28.5483 32.591 30.143 32.02 31.7485C31.3932 33.511 30.7887 35.2814 30.1803 37.0503C30.1504 37.1372 30.1765 37.2434 30.1765 37.3715C30.2301 37.3228 30.2562 37.3045 30.2756 37.2808C30.6362 36.8408 30.9901 36.3952 31.3577 35.9612C31.6503 35.6158 31.9648 35.2889 32.2603 34.9457C32.7598 34.3659 33.2535 33.781 33.7469 33.196C34.5268 32.2711 35.3124 31.351 36.0806 30.4165C36.7535 29.598 37.4139 28.7688 38.0641 27.9322C38.4149 27.4807 38.7328 27.0037 39.0743 26.5262ZM27.2288 31.4344C27.2464 31.4444 27.264 31.4543 27.2815 31.4642C27.2498 31.5402 27.2236 31.6192 27.1854 31.6917C27.0109 32.023 26.8296 32.3509 26.6593 32.6843C26.6284 32.7448 26.6049 32.8443 26.6334 32.894C26.7634 33.1208 26.9132 33.3363 27.0667 33.5724C27.2523 33.2444 27.4231 32.9425 27.594 32.6406C27.6253 32.6573 27.6567 32.674 27.6881 32.6906C27.5461 32.9971 27.3973 33.3006 27.267 33.612C27.2336 33.6916 27.2216 33.8191 27.263 33.8848C27.6567 34.5099 28.0398 35.1441 28.4747 35.7401C28.844 36.2462 29.2775 36.7055 29.6826 37.1854C29.7186 37.1654 29.7546 37.1454 29.7906 37.1254C28.6886 33.5632 27.8979 29.9105 26.6233 26.4204C24.8998 26.368 23.1904 26.3161 21.485 26.2643C22.2395 27.2852 23.0149 28.3344 23.7937 29.3882C24.1487 28.8246 24.4708 28.3131 24.793 27.8017C24.8227 27.8192 24.8524 27.8368 24.8821 27.8544C24.5637 28.4091 24.2452 28.9639 23.9166 29.5364C24.0441 29.6932 24.1835 29.8646 24.3257 30.0395C24.7476 29.4498 25.1457 28.8932 25.5439 28.3365C25.5624 28.3492 25.581 28.3619 25.5995 28.3746C25.3304 29.0499 24.8622 29.6027 24.48 30.1335C24.5786 30.2663 24.6665 30.3847 24.7612 30.5123C25.0563 30.0399 25.3347 29.5942 25.6131 29.1486C25.6319 29.1578 25.6508 29.1669 25.6697 29.176C25.6535 29.2246 25.6437 29.2766 25.6201 29.3213C25.4102 29.7192 25.2026 30.1186 24.9827 30.5111C24.9275 30.6097 24.8917 30.6828 24.9805 30.7758C25.1044 30.9054 25.2228 31.0402 25.3388 31.1675C25.6281 30.7579 25.9185 30.3469 26.2089 29.9359C26.233 29.9496 26.2571 29.9633 26.2812 29.977C26.2287 30.1028 26.1896 30.2364 26.1209 30.3527C25.9466 30.648 25.7544 30.9326 25.5807 31.2282C25.545 31.2889 25.525 31.3977 25.5555 31.4514C25.6544 31.6252 25.7801 31.7836 25.906 31.963C26.186 31.5005 26.4514 31.0622 26.7167 30.624C26.7442 30.6395 26.7715 30.6549 26.7989 30.6704C26.6336 31.2035 26.3133 31.6627 26.0368 32.1418C26.1818 32.3179 26.3193 32.485 26.4534 32.6479C26.716 32.237 26.9725 31.8357 27.2288 31.4344ZM36.517 22.4198C35.9396 22.3923 35.4136 22.367 34.8875 22.3429C34.8569 22.3415 34.8258 22.3516 34.7948 22.3549C34.5397 22.382 34.2844 22.4331 34.0295 22.4315C33.0352 22.4253 32.0411 22.4016 31.0469 22.386C30.8263 22.3826 30.6057 22.3855 30.3851 22.3855C30.3729 22.4097 30.3607 22.434 30.3485 22.4582C31.0028 23.281 31.6379 24.12 32.3195 24.9195C32.6515 25.3089 33.0668 25.6282 33.4519 25.9707C33.5537 26.0613 33.6655 26.1367 33.812 25.9915C34.7628 25.0489 35.5964 24.0144 36.2918 22.8701C36.3747 22.7337 36.4356 22.584 36.517 22.4198ZM30.1127 22.5667C29.1325 23.7207 28.1851 24.8361 27.2453 25.9425C29.1884 26.0183 31.1259 26.0938 33.0634 26.1694C31.8575 25.1474 30.9968 23.8851 30.1127 22.5667ZM26.8179 25.8898C27.8219 24.729 28.8019 23.5959 29.8255 22.4123C28.0767 22.4486 26.3967 22.4835 24.7549 22.5176C25.3417 23.6528 25.9533 24.801 26.8179 25.8898ZM36.8244 22.6928C36.0868 23.9936 35.2045 25.0845 34.1869 26.1368C35.8843 26.2351 37.5256 26.2882 39.2506 26.026C38.2206 25.0475 37.5749 23.8642 36.8244 22.6928ZM26.4059 25.9366C26.0589 25.4037 25.6958 24.8895 25.3796 24.348C25.0608 23.8021 24.7887 23.2291 24.4858 22.6482C23.5595 23.7411 22.6368 24.8298 21.6986 25.9366C23.2606 25.9366 24.8256 25.9366 26.4059 25.9366Z" fill="black"/>
<path d="M29.4172 28.3014C29.1722 28.7351 28.9273 29.1687 28.6648 29.6335C28.5513 29.3874 29.0191 28.5293 29.3578 28.2598C29.3776 28.2736 29.3974 28.2875 29.4172 28.3014Z" fill="black"/>
<path d="M28.8628 30.3003C29.0866 29.917 29.3103 29.5337 29.5341 29.1504C29.5678 29.1698 29.6015 29.1893 29.6353 29.2087C29.5004 29.6425 29.2601 30.0168 28.9633 30.3591C28.9298 30.3395 28.8963 30.3199 28.8628 30.3003Z" fill="black"/>
<path d="M28.8735 31.2456C28.9408 30.9026 29.1606 30.6507 29.3896 30.4043C29.413 30.4182 29.4363 30.4322 29.4597 30.4461C29.291 30.7285 29.1223 31.011 28.9537 31.2935C28.927 31.2775 28.9003 31.2616 28.8735 31.2456Z" fill="black"/>
<path d="M23.9592 25.544C23.8971 25.2307 24.4194 24.4204 24.7221 24.3301C24.5258 24.7817 24.2438 25.134 23.9592 25.544Z" fill="black"/>
<path d="M23.519 25.0285C23.6638 24.7188 23.8735 24.453 24.1069 24.2031C24.1247 24.2148 24.1426 24.2266 24.1605 24.2383C23.9765 24.5193 23.7926 24.8002 23.6087 25.0812C23.5788 25.0636 23.5489 25.046 23.519 25.0285Z" fill="black"/>
</g>
<defs>
<clipPath id="clip0_53_1362">
<rect width="18.9247" height="18.9179" fill="white" transform="translate(20.8389 20.582)"/>
</clipPath>
</defs>
</svg>
