<svg width="60" height="60" viewBox="0 0 60 60" fill="none" xmlns="http://www.w3.org/2000/svg">
<rect x="-5.96046e-08" y="-0.707107" width="41.4264" height="41.4264" transform="matrix(0.707107 -0.707107 -0.707107 -0.707107 29.5 58.7929)" stroke="#ED6726"/>
<g clip-path="url(#clip0_53_1342)">
<path d="M28.7044 25.6106C28.8783 25.6106 29.0194 25.4695 29.0194 25.2955C29.0194 25.1216 28.8783 24.9805 28.7044 24.9805H28.7009C28.5273 24.9805 28.3877 25.1216 28.3877 25.2955C28.3877 25.4695 28.5301 25.6106 28.7044 25.6106Z" fill="black"/>
<path d="M34.4425 31.5953C34.4425 31.814 34.4371 31.9158 34.312 32.0409C34.0146 32.338 33.5299 32.1909 33.5183 32.1874C33.3529 32.1335 33.1761 32.223 33.1216 32.3871C33.0668 32.5522 33.156 32.7306 33.3208 32.7857C33.3378 32.7914 33.5413 32.857 33.8117 32.857C34.0984 32.857 34.4608 32.7832 34.7576 32.4864C35.0726 32.1714 35.0726 31.8386 35.0726 31.5954C35.0726 31.377 35.0777 31.2752 35.2031 31.1498C35.5021 30.8508 35.9914 31.0024 35.9946 31.0033C36.1613 31.0591 36.338 30.969 36.3929 30.8039C36.448 30.6388 36.3588 30.4604 36.1937 30.4053C36.1591 30.3936 35.3339 30.1277 34.7576 30.7043C34.4425 31.0194 34.4425 31.3524 34.4425 31.5953Z" fill="black"/>
<path d="M28.7044 36.3235C28.8783 36.3235 29.0194 36.1823 29.0194 36.0084C29.0194 35.8345 28.8783 35.6934 28.7044 35.6934H28.7009C28.5273 35.6934 28.3877 35.8345 28.3877 36.0084C28.3877 36.1823 28.5301 36.3235 28.7044 36.3235Z" fill="black"/>
<path d="M30.9013 30.6521C30.9013 30.826 31.0421 30.9672 31.2163 30.9672C31.3903 30.9672 31.5314 30.826 31.5314 30.6521V30.2989C31.7775 30.2387 32.0025 30.1082 32.1925 29.9274L32.5879 30.2623C32.6475 30.3124 32.7196 30.337 32.7915 30.337C32.8809 30.337 32.9698 30.2992 33.0319 30.2254C33.1447 30.0928 33.128 29.894 32.9953 29.7815L32.5655 29.4176C32.6648 29.2194 32.7347 28.9979 32.7681 28.7616H33.1068C33.2808 28.7616 33.4219 28.6204 33.4219 28.4465C33.4219 28.2726 33.2808 28.1314 33.1068 28.1314H32.7681C32.7347 27.8951 32.6648 27.6736 32.5655 27.4754L32.9953 27.1115C33.128 26.999 33.1447 26.8002 33.0319 26.6676C32.92 26.5352 32.7215 26.5179 32.5879 26.6307L32.1925 26.9656C32.0025 26.7848 31.7776 26.6543 31.5315 26.5942V26.2409C31.5315 26.0669 31.3903 25.9258 31.2164 25.9258C31.0421 25.9258 30.9013 26.0669 30.9013 26.2409V26.5941C30.6549 26.6543 30.4303 26.7847 30.24 26.9656L29.8445 26.6306C29.7109 26.5178 29.5124 26.5351 29.4006 26.6675C29.2881 26.8002 29.3045 26.999 29.4371 27.1114L29.8669 27.4754C29.7677 27.6735 29.6977 27.895 29.6646 28.1314H29.3258C29.1516 28.1314 29.0107 28.2725 29.0107 28.4464C29.0107 28.6203 29.1516 28.7615 29.3258 28.7615H29.6645C29.6976 28.9978 29.7675 29.2193 29.8668 29.4175L29.437 29.7814C29.3044 29.8939 29.288 30.0927 29.4005 30.2254C29.4625 30.2991 29.5517 30.3369 29.6412 30.3369C29.7127 30.3369 29.7852 30.3123 29.8444 30.2623L30.2398 29.9273C30.4302 30.1082 30.6548 30.2386 30.9012 30.2988V30.6521H30.9013ZM30.2711 28.4465C30.2711 27.7514 30.6949 27.1861 31.2163 27.1861C31.7375 27.1861 32.1616 27.7514 32.1616 28.4465C32.1616 29.1416 31.7375 29.7068 31.2163 29.7068C30.6949 29.7068 30.2711 29.1416 30.2711 28.4465Z" fill="black"/>
<path d="M29.9641 31.9121H29.9607C29.7867 31.9121 29.6475 32.0533 29.6475 32.2272C29.6475 32.4011 29.7899 32.5423 29.9641 32.5423C30.138 32.5423 30.2792 32.4011 30.2792 32.2272C30.2792 32.0533 30.138 31.9121 29.9641 31.9121Z" fill="black"/>
<path d="M32.1617 34.4329C32.1617 34.0854 31.8788 33.8027 31.5316 33.8027C31.184 33.8027 30.9014 34.0854 30.9014 34.4329C30.9014 34.7805 31.184 35.0631 31.5316 35.0631C31.8788 35.0631 32.1617 34.7805 32.1617 34.4329Z" fill="black"/>
<path d="M25.859 28.761C25.859 28.4135 25.5761 28.1309 25.2288 28.1309C24.8813 28.1309 24.5986 28.4135 24.5986 28.761C24.5986 29.1086 24.8813 29.3912 25.2288 29.3912C25.5761 29.3912 25.859 29.1086 25.859 28.761Z" fill="black"/>
<path d="M27.4426 27.5H27.4392C27.2656 27.5 27.126 27.6412 27.126 27.8151C27.126 27.989 27.2684 28.1302 27.4426 28.1302C27.6166 28.1302 27.7577 27.989 27.7577 27.8151C27.7577 27.6412 27.6166 27.5 27.4426 27.5Z" fill="black"/>
<path d="M30.27 20.5684C25.0579 20.5684 20.8174 24.8088 20.8174 30.021C20.8174 35.2332 25.0579 39.4737 30.27 39.4737C35.4822 39.4737 39.7227 35.2332 39.7227 30.021C39.7227 24.8088 35.4822 20.5684 30.27 20.5684ZM30.27 38.8435C25.4051 38.8435 21.4476 34.8857 21.4476 30.021C21.4476 25.1564 25.4051 21.1985 30.27 21.1985C35.1347 21.1985 39.0925 25.1564 39.0925 30.021C39.0925 34.8857 35.1347 38.8435 30.27 38.8435Z" fill="black"/>
<path d="M27.2787 34.1005C27.3118 34.1116 27.3452 34.1166 27.3783 34.1166C27.5103 34.1166 27.6335 34.0331 27.677 33.9011C27.6886 33.8664 27.9549 33.0409 27.378 32.4645C27.0629 32.1495 26.7298 32.1495 26.4869 32.1495C26.2685 32.1495 26.1665 32.1441 26.0414 32.019C25.7424 31.72 25.8936 31.2304 25.8945 31.2275C25.9496 31.0624 25.8605 30.8841 25.6954 30.8289C25.529 30.7734 25.3519 30.8632 25.2971 31.028C25.2852 31.063 25.0192 31.8882 25.5958 32.4645C25.9109 32.7796 26.2436 32.7796 26.4869 32.7796C26.7053 32.7796 26.807 32.7846 26.9324 32.91C27.2292 33.2068 27.0824 33.6915 27.0789 33.7034C27.025 33.8683 27.1142 34.0457 27.2787 34.1005Z" fill="black"/>
<path d="M35.9511 27.1862C35.9511 27.0123 35.8099 26.8711 35.636 26.8711H35.6325C35.4586 26.8711 35.3193 27.0123 35.3193 27.1862C35.3193 27.3601 35.4618 27.5012 35.636 27.5012C35.8099 27.5012 35.9511 27.3601 35.9511 27.1862Z" fill="black"/>
<path d="M30.2695 21.8281C25.7521 21.8281 22.0771 25.5033 22.0771 30.0204C22.0771 34.5376 25.7521 38.2128 30.2695 38.2128C30.4434 38.2128 30.5845 38.0716 30.5845 37.8977C30.5845 37.7238 30.4434 37.5826 30.2695 37.5826C26.0996 37.5826 22.7073 34.19 22.7073 30.0204C22.7073 25.8509 26.0996 22.4583 30.2695 22.4583C34.439 22.4583 37.8316 25.8509 37.8316 30.0204C37.8316 33.7536 35.1609 36.8931 31.4816 37.4858C31.3099 37.5136 31.193 37.6752 31.2207 37.8472C31.2484 38.019 31.4098 38.1359 31.5821 38.1081C35.5683 37.466 38.4618 34.0646 38.4618 30.0204C38.4618 25.5033 34.7869 21.8281 30.2695 21.8281Z" fill="black"/>
</g>
<defs>
<clipPath id="clip0_53_1342">
<rect width="18.9053" height="18.9053" fill="white" transform="translate(20.8174 20.5684)"/>
</clipPath>
</defs>
</svg>
