<svg width="60" height="60" viewBox="0 0 60 60" fill="none" xmlns="http://www.w3.org/2000/svg">
<g clip-path="url(#clip0_53_1382)">
<path d="M36.0772 21.5451C36.0316 21.5109 35.9777 21.4934 35.9246 21.4922C35.7395 21.3237 35.5369 21.172 35.3188 21.0396C34.7816 20.7236 34.276 20.5656 33.7704 20.5339C31.1792 20.4391 29.378 21.1344 28.5564 22.5563L28.4616 22.6827C28.3036 22.9671 28.114 23.2515 27.9244 23.5359L25.6492 27.5175C24.9856 28.6867 24.3536 29.6663 23.69 30.4879C22.9948 31.3727 22.2364 32.7947 22.4892 34.6274C22.7078 36.0847 23.6735 37.2425 24.9981 37.7724L25.9336 38.7354L25.9652 38.767C26.376 39.083 26.85 39.3042 27.2924 39.3675C27.5136 39.399 27.7348 39.4307 27.956 39.4307C28.7144 39.4307 29.5044 39.2411 30.326 38.7987C31.59 38.1667 32.6328 37.0922 33.3596 35.7651L34.75 33.1739C34.9395 32.7947 35.2555 32.4787 35.6348 32.1943C37.5939 30.8039 38.8895 27.2647 38.9527 27.0751C40.1536 24.0099 36.2352 21.6399 36.0772 21.5451ZM23.0896 34.5327C22.8684 32.9211 23.5636 31.6571 24.164 30.8671C24.8592 30.0139 25.5228 29.0343 26.1864 27.8335L28.4616 23.8835C28.6512 23.5991 28.8408 23.2831 28.9988 22.9987L29.0936 22.8407C29.7572 21.7347 31.2108 21.1343 33.328 21.1343C33.4544 21.1343 33.5808 21.1343 33.7388 21.1343C34.118 21.1659 34.5288 21.2923 34.9396 21.5451C35.1827 21.6868 35.4029 21.858 35.5953 22.052C35.6067 22.0732 35.6199 22.094 35.6348 22.1138C35.8244 22.3034 35.9824 22.5246 36.1088 22.7459L36.1404 22.8091C36.172 22.9039 36.2352 22.9987 36.2668 23.0935L36.2686 23.0939C36.3222 23.2372 36.3641 23.3849 36.3932 23.5359C36.5195 24.0415 36.5512 24.5786 36.5195 25.0527C36.4563 25.9059 36.1088 26.7275 35.5083 27.3911L32.3799 30.8671L30.3576 33.6163C29.9784 34.1219 29.536 34.7539 29.1883 35.4175C28.7848 36.1862 28.2059 36.779 27.5726 37.1118C27.2386 37.2797 26.8968 37.3767 26.5656 37.3767C26.5024 37.3767 26.4392 37.3767 26.376 37.3767C25.9652 37.3451 25.586 37.2503 25.2068 37.0923C25.1487 37.0778 25.084 37.0768 25.0218 37.092C23.9899 36.6215 23.2498 35.6767 23.0896 34.5327ZM38.384 26.8223C38.3524 26.8539 37.0884 30.3616 35.2872 31.6571C34.8132 32.0048 34.4656 32.3839 34.2127 32.8579L32.8224 35.4491C32.1588 36.6815 31.2107 37.6295 30.0416 38.2299C29.1252 38.7039 28.2088 38.8619 27.3872 38.7355C27.0396 38.7039 26.692 38.5459 26.3444 38.2931L26.1055 38.0542C26.1637 38.0612 26.2222 38.0672 26.2812 38.0719C26.3444 38.0719 26.4076 38.0719 26.4708 38.0719C27.4248 38.0719 28.3967 37.5496 29.1421 36.6686C29.3903 36.3844 29.6086 36.0623 29.7887 35.702C29.7887 35.702 29.7887 35.7019 29.7888 35.7019C30.1364 35.0699 30.5472 34.5011 30.8948 33.9955L32.9172 31.3411L36.014 27.8651C36.7092 27.0751 37.12 26.1271 37.1832 25.1475C37.2148 24.5787 37.1832 24.0099 37.0568 23.4411C37.0197 23.2717 36.9709 23.1069 36.9115 22.9471C37.8882 23.8327 39.0133 25.2492 38.384 26.8223Z" fill="black"/>
<path d="M31.8441 25.2429C32.5393 25.2429 33.1081 24.6741 33.1081 23.9788C33.1081 23.2836 32.5393 22.7148 31.8441 22.7148C31.1489 22.7148 30.5801 23.2836 30.5801 23.9788C30.5801 24.6741 31.1489 25.2429 31.8441 25.2429ZM31.8441 23.3469C32.1917 23.3469 32.4761 23.6313 32.4761 23.9789C32.4761 24.3265 32.1917 24.6109 31.8441 24.6109C31.4965 24.6109 31.2121 24.3265 31.2121 23.9789C31.2121 23.6313 31.4965 23.3469 31.8441 23.3469Z" fill="black"/>
<path d="M30.263 30.9303C30.9582 30.9303 31.527 30.3615 31.527 29.6663C31.527 28.9711 30.9582 28.4023 30.263 28.4023C29.5679 28.4023 28.999 28.9711 28.999 29.6664C28.999 30.3616 29.5678 30.9303 30.263 30.9303ZM30.263 29.0343C30.6106 29.0343 30.895 29.3187 30.895 29.6664C30.895 30.014 30.6106 30.2984 30.263 30.2984C29.9154 30.2984 29.631 30.014 29.631 29.6664C29.631 29.3187 29.9154 29.0343 30.263 29.0343Z" fill="black"/>
<path d="M25.2054 34.4069C25.9006 34.4069 26.4694 33.8381 26.4694 33.1429C26.4694 32.4477 25.9006 31.8789 25.2054 31.8789C24.5102 31.8789 23.9414 32.4477 23.9414 33.1429C23.9414 33.8381 24.5102 34.4069 25.2054 34.4069ZM25.2054 32.5109C25.553 32.5109 25.8374 32.7953 25.8374 33.1429C25.8374 33.4905 25.553 33.7749 25.2054 33.7749C24.8578 33.7749 24.5734 33.4905 24.5734 33.1429C24.5734 32.7953 24.8578 32.5109 25.2054 32.5109Z" fill="black"/>
<path d="M28.9986 26.507C29.1882 26.507 29.3146 26.3806 29.3146 26.191C29.3146 26.033 29.1882 25.875 28.9986 25.875C28.809 25.875 28.6826 26.0014 28.6826 26.191C28.6826 26.3806 28.809 26.507 28.9986 26.507Z" fill="black"/>
<path d="M28.3658 33.1417C28.5554 33.1417 28.6818 33.0153 28.6818 32.8257C28.6818 32.6677 28.5554 32.5098 28.3658 32.5098C28.1762 32.5098 28.0498 32.6362 28.0498 32.8257C28.0498 33.0153 28.1762 33.1417 28.3658 33.1417Z" fill="black"/>
<path d="M36.2681 28.4023C36.0785 28.4023 35.9521 28.5287 35.9521 28.7183C35.9521 28.9079 36.0785 29.0343 36.2681 29.0343C36.4577 29.0343 36.5841 28.9079 36.5841 28.7183C36.5842 28.5603 36.4577 28.4023 36.2681 28.4023Z" fill="black"/>
<path d="M32.4742 33.459C32.2846 33.459 32.1582 33.5854 32.1582 33.775C32.1582 33.9646 32.2846 34.0909 32.4742 34.0909C32.6638 34.0909 32.7902 33.9646 32.7902 33.775C32.7902 33.617 32.6638 33.459 32.4742 33.459Z" fill="black"/>
</g>
<rect x="-5.96046e-08" y="-0.707107" width="41.4264" height="41.4264" transform="matrix(0.707107 -0.707107 -0.707107 -0.707107 29.5 58.7929)" stroke="#ED6726"/>
<defs>
<clipPath id="clip0_53_1382">
<rect width="18.9053" height="18.9053" fill="white" transform="translate(21.3574 20.5254)"/>
</clipPath>
</defs>
</svg>
