<svg width="60" height="60" viewBox="0 0 60 60" fill="none" xmlns="http://www.w3.org/2000/svg">
<rect x="-5.96046e-08" y="-0.707107" width="41.4264" height="41.4264" transform="matrix(0.707107 -0.707107 -0.707107 -0.707107 29.5 58.7929)" stroke="#ED6726"/>
<g clip-path="url(#clip0_53_1374)">
<path d="M20.8174 29.7637V39.9164H39.7227V29.7637H20.8174ZM39.1389 39.333H21.4008V30.3471H23.7537L25.1599 32.597L23.1204 33.9332L22.8615 34.1027L23.1269 34.2341L27.0607 36.1829L23.5581 34.0878L25.6879 32.9219L25.9192 32.7953L25.7874 32.5418L24.6457 30.3471H29.6623L29.3867 31.9181L29.3719 32.0025L29.4061 32.0496L30.6404 33.7506L29.7352 31.9493L30.2944 30.3473H34.9029L35.5254 30.6749L33.5189 32.6785L33.3732 32.8239L33.5508 32.8991L36.0208 33.9457L33.8484 32.756L36.2205 30.8205L36.5214 30.5746L36.1775 30.3471H39.1387V39.333H39.1389Z" fill="black"/>
</g>
<rect x="19.9039" y="22.1465" width="3.32121" height="25.4674" transform="rotate(-45 19.9039 22.1465)" fill="white" stroke="black"/>
<defs>
<clipPath id="clip0_53_1374">
<rect width="18.9053" height="18.9053" fill="white" transform="translate(20.8174 25.3867)"/>
</clipPath>
</defs>
</svg>
