<svg width="138" height="26" viewBox="0 0 138 26" fill="none" xmlns="http://www.w3.org/2000/svg">
<path d="M4.36282 9.61873C4.86339 9.49779 5.49646 9.50989 6.26204 9.65501C7.08651 9.8485 7.73431 10.1629 8.20543 10.5983C8.52933 10.8643 8.80906 11.2271 9.04463 11.6867L9.13296 11.8318L9.48631 11.5416C10.6641 10.6225 11.9155 10.0178 13.2406 9.72757C14.9484 9.36477 16.4943 9.44942 17.8782 9.98153C18.3788 10.175 18.8205 10.429 19.2033 10.7434C19.4683 10.9853 19.6597 11.2271 19.7775 11.469L20.0866 12.0132V12.122L20.5283 11.7592C21.8828 10.5741 23.414 9.87269 25.1218 9.65501C26.1818 9.4857 27.1535 9.4978 28.0369 9.69129C29.1852 9.88478 30.0539 10.296 30.6428 10.9248C30.9667 11.2634 31.2317 11.7109 31.4378 12.2672C31.4967 12.4848 31.5261 12.8839 31.5261 13.4644C31.5261 14.0933 31.5114 14.4923 31.482 14.6616C31.1581 16.0887 30.363 18.2292 29.0969 21.0832C28.4785 22.486 28.1841 23.4051 28.2135 23.8405C28.243 24.1065 28.4049 24.2517 28.6994 24.2758C29.4061 24.3242 30.0539 24.0098 30.6428 23.3326C31.2317 22.6553 31.7028 21.7725 32.0562 20.6841C32.2034 20.2971 32.3506 20.0915 32.4978 20.0674C32.5862 20.0432 32.8953 20.0311 33.4254 20.0311C34.0732 20.0311 34.4265 20.0553 34.4854 20.1036C34.6621 20.2004 34.6621 20.4544 34.4854 20.8655C33.9259 22.486 33.0426 23.7679 31.8353 24.7112C31.4525 25.0256 30.9814 25.3159 30.4219 25.5819C29.1263 26.114 27.8602 26.1382 26.6235 25.6545C26.0935 25.4368 25.696 25.1828 25.431 24.8926C24.8715 24.3363 24.5918 23.6833 24.5918 22.9335C24.5918 22.4739 24.8126 21.7241 25.2543 20.6841C26.6971 17.4915 27.5069 15.23 27.6835 13.8998C27.8013 13.3193 27.7866 12.7751 27.6394 12.2672C27.4332 11.7834 27.1388 11.4811 26.756 11.3602C26.4615 11.2392 26.0051 11.215 25.3868 11.2876C23.4434 11.5295 21.765 12.7388 20.3516 14.9156L19.9983 15.4235L18.5849 20.0311C17.6427 23.1512 17.1274 24.7717 17.039 24.8926C16.6562 25.5215 16.0232 25.8843 15.1398 25.981C14.9042 26.0052 14.6834 25.9931 14.4773 25.9447C13.7412 25.7754 13.3436 25.4005 13.2848 24.82C13.2848 24.6265 13.7559 22.9577 14.6981 19.8134C15.6993 16.524 16.2146 14.8068 16.244 14.6616C16.3912 14.0812 16.4649 13.537 16.4649 13.029C16.4354 12.376 16.244 11.9044 15.8907 11.6141C15.8023 11.4932 15.6698 11.4085 15.4932 11.3602C15.3754 11.3118 15.1251 11.2876 14.7423 11.2876C14.2417 11.2876 13.7706 11.3481 13.3289 11.469C12.5045 11.6867 11.7389 12.0858 11.0322 12.6662C10.3255 13.2467 9.64825 14.0207 9.00046 14.9882L8.69128 15.4235L7.32207 20.0311C6.32093 23.2721 5.73203 24.9893 5.55535 25.1828C5.52591 25.2312 5.45229 25.3038 5.33451 25.4005C4.71616 25.9084 3.99475 26.0898 3.17028 25.9447C2.43415 25.7754 2.03664 25.4005 1.97774 24.82C1.97774 24.6024 2.53721 22.6432 3.65613 18.9427C4.8045 15.2905 5.40813 13.2951 5.46702 12.9565C5.55535 12.3276 5.52591 11.8681 5.37868 11.5778C5.23145 11.3602 5.02534 11.2513 4.76033 11.2513C4.58366 11.2513 4.42171 11.2997 4.27448 11.3964C4.03892 11.5174 3.78863 11.7955 3.52362 12.2309C3.22917 12.8114 2.8611 13.7909 2.41942 15.1696C2.33109 15.3147 2.2722 15.3993 2.24275 15.4235C2.18386 15.4719 1.83052 15.4961 1.18272 15.4961H0.211025L0.078521 15.3872C-0.0392604 15.2905 -0.0245378 15.0003 0.122689 14.5165C0.888267 12.243 1.85996 10.7676 3.03778 10.0904C3.59724 9.80013 4.03892 9.64291 4.36282 9.61873Z" fill="black"/>
<path d="M56.3644 0.0408142C57.5422 -0.0317448 58.4845 -0.007558 59.1912 0.113375C60.9873 0.331055 62.5921 0.899441 64.0055 1.81853C64.6533 2.30227 65.1539 2.72553 65.5072 3.08833C66.8322 4.53953 67.5978 6.24469 67.8039 8.20381C67.9217 8.92941 67.907 9.80013 67.7598 10.816C67.4653 13.1137 66.685 15.351 65.4189 17.5278C65.1833 17.8906 64.9625 18.2171 64.7564 18.5073C63.4019 20.3213 61.7382 21.192 59.7654 21.1195C59.2059 21.0953 58.6464 20.9744 58.087 20.7567C57.7042 20.5874 57.4245 20.4181 57.2478 20.2488C57.0122 20.0553 56.8356 19.8497 56.7178 19.632L56.5411 19.3418L56.2319 19.5594C55.113 20.285 53.9352 20.7688 52.6985 21.0106C52.404 21.059 51.9771 21.0832 51.4176 21.0832C50.5048 21.1074 49.6214 20.9502 48.7675 20.6116C48.1786 20.3697 47.6633 20.0674 47.2217 19.7046C46.78 19.3176 46.4266 18.8822 46.1616 18.3985C45.6316 17.552 45.3519 16.5845 45.3224 15.4961C45.3224 14.5286 45.4697 13.5974 45.7641 12.7025C46.5297 10.2597 48.0903 8.27637 50.4459 6.75261C50.7404 6.53493 51.0495 6.34144 51.3734 6.17213C52.2568 5.6884 53.0371 5.37397 53.7143 5.22885C54.9216 4.91443 55.9375 4.80559 56.7619 4.90233C58.8231 5.12001 60.2512 6.13585 61.0462 7.94985L61.1787 8.27637H62.0179C62.7246 8.27637 63.1074 8.34893 63.1663 8.49405C63.1957 8.54242 62.7246 10.1871 61.7529 13.4281C60.7812 16.5966 60.2807 18.338 60.2512 18.6524C60.2218 19.1362 60.3543 19.3901 60.6487 19.4143C60.7076 19.4143 60.7665 19.4143 60.8254 19.4143C61.4143 19.3418 61.9149 19.0636 62.3271 18.5799C63.0927 17.7575 63.873 16.0766 64.668 13.537C65.1097 12.0374 65.3305 10.7071 65.3305 9.54617C65.3305 8.82057 65.3158 8.34893 65.2864 8.13125C65.0214 6.5833 64.3883 5.26513 63.3871 4.17673C61.6204 2.26599 59.2059 1.46783 56.1436 1.78225C54.4063 1.97575 52.6543 2.53204 50.8876 3.45113C47.9725 4.99908 45.7052 7.15169 44.0857 9.90897C43.9679 10.1266 43.8502 10.3443 43.7324 10.562C42.3484 13.2709 41.8773 15.7863 42.319 18.1082C42.8196 20.7204 44.233 22.5344 46.5591 23.5502C47.2658 23.8405 48.0167 24.0461 48.8117 24.167C50.5784 24.4331 53.0813 24.2758 56.3203 23.6954C57.6159 23.4535 59.1028 23.0786 60.7812 22.5707L61.3112 22.3893H62.6805C63.6816 22.3893 64.2263 22.4618 64.3147 22.607C64.3441 22.7037 64.3441 22.7884 64.3147 22.8609C64.2852 22.9335 64.0791 23.0423 63.6963 23.1874C60.6046 24.4935 57.3361 25.3401 53.891 25.727C52.0065 25.9689 50.3576 26.0415 48.9442 25.9447C45.4108 25.6545 42.8343 24.2637 41.2148 21.7725C41.1265 21.6516 41.0529 21.5307 40.994 21.4097C40.3756 20.4906 39.9634 19.378 39.7573 18.072C39.6395 17.2496 39.6395 16.2942 39.7573 15.2058C39.7573 15.1333 39.7573 15.0728 39.7573 15.0244C40.2873 11.5658 41.9804 8.4094 44.8366 5.55537C45.8672 4.63628 46.6916 3.95905 47.31 3.52369C50.1956 1.49201 53.2138 0.331055 56.3644 0.0408142ZM56.7178 6.68005C56.2172 6.53493 55.7313 6.51075 55.2602 6.60749C54.1119 6.82517 52.9635 7.61124 51.8151 8.96569C50.1956 10.8281 49.3123 12.9202 49.165 15.2421C49.0767 16.5966 49.3123 17.6729 49.8717 18.471C50.2251 18.8822 50.549 19.1362 50.8434 19.2329C51.344 19.4748 52.036 19.4748 52.9193 19.2329C54.2738 18.8459 55.54 17.9389 56.7178 16.5119L56.9386 16.258L57.9545 12.9202L58.9703 9.54617L58.9262 9.29221C58.7789 8.73592 58.6317 8.33684 58.4845 8.09497C58.0428 7.36937 57.4539 6.89773 56.7178 6.68005Z" fill="#ED6726"/>
<path d="M74.3674 9.61873C74.8679 9.49779 75.501 9.50989 76.2666 9.65501C76.7377 9.75175 77.2089 9.93316 77.68 10.1992C78.1511 10.4894 78.4897 10.7918 78.6958 11.1062L78.8725 11.3239L79.27 10.9974C79.8295 10.5862 80.3889 10.2597 80.9484 10.0178C82.0084 9.58245 83.0979 9.43733 84.2168 9.58245C86.1897 9.8485 87.4264 10.6104 87.9269 11.8681C88.0742 12.2309 88.1331 12.6179 88.1036 13.029C88.0153 13.9481 87.6325 14.6254 86.9553 15.0607C85.9541 15.6654 85.0266 15.7742 84.1727 15.3872C83.8193 15.2421 83.569 15.0244 83.4218 14.7342C83.3335 14.6133 83.2746 14.4198 83.2451 14.1537C83.2451 13.7426 83.3482 13.3677 83.5543 13.029C83.8782 12.5453 84.2757 12.2188 84.7469 12.0495C84.9235 11.9769 85.0119 11.9165 85.0119 11.8681C84.9235 11.723 84.6438 11.5778 84.1727 11.4327C83.5543 11.215 82.9065 11.1909 82.2293 11.3602C81.1692 11.6746 80.1534 12.6179 79.1817 14.19C79.0639 14.3835 78.475 16.1854 77.415 19.5957C76.3549 23.1028 75.7366 24.9652 75.5599 25.1828C75.5305 25.2312 75.4568 25.3038 75.3391 25.4005C74.7207 25.9084 73.9993 26.0898 73.1748 25.9447C72.4387 25.7754 72.0412 25.4005 71.9823 24.82C71.9823 24.6024 72.5418 22.6432 73.6607 18.9427C74.8091 15.2905 75.4127 13.2951 75.4716 12.9565C75.5599 12.3276 75.5305 11.8681 75.3832 11.5778C75.2655 11.4085 75.0741 11.2997 74.8091 11.2513C74.6324 11.2513 74.4852 11.2876 74.3674 11.3602C74.0729 11.5295 73.7932 11.8197 73.5282 12.2309C73.2337 12.8114 72.8657 13.7909 72.424 15.1696C72.3356 15.3147 72.2768 15.3993 72.2473 15.4235C72.1884 15.4719 71.8351 15.4961 71.1873 15.4961H70.2156L70.0831 15.3872C69.9947 15.3147 69.9506 15.2179 69.9506 15.097L70.2156 14.2263C70.9812 12.122 71.9234 10.7434 73.0423 10.0904C73.5135 9.8485 73.9551 9.69129 74.3674 9.61873Z" fill="black"/>
<path d="M95.5625 0.621295C97.8592 0.476176 98.9929 0.403616 98.9634 0.403616C99.2284 0.403616 99.4051 0.488269 99.4934 0.657574C99.5229 0.754321 99.037 2.44739 98.0359 5.73677L96.5342 10.7071L96.9759 10.4894C98.2715 9.83641 99.5082 9.52198 100.686 9.54617C102.57 9.61873 104.013 10.2839 105.014 11.5416C105.486 12.122 105.854 12.8114 106.119 13.6095C106.413 14.843 106.384 16.1008 106.03 17.3826C105.589 19.2692 104.632 20.9623 103.159 22.4618C102.541 23.1149 101.893 23.6591 101.216 24.0944C99.9204 24.9893 98.4923 25.5819 96.9317 25.8722C96.6667 25.9205 96.2545 25.9447 95.695 25.9447C95.1355 25.9447 94.7086 25.9205 94.4141 25.8722C93.7958 25.7512 93.1921 25.5215 92.6032 25.1828C91.8671 24.7475 91.3076 24.2033 90.9249 23.5502C90.5126 22.8488 90.2329 22.0869 90.0857 21.2646C89.9973 20.6116 90.012 19.8255 90.1298 18.9064C90.1887 18.5436 90.9837 15.8468 92.5149 10.816C94.0166 5.88189 94.7086 3.31811 94.5908 3.12461C94.3847 2.95531 93.7516 2.85856 92.6916 2.83437C91.9849 2.83437 91.5727 2.74972 91.4549 2.58041L91.4107 2.47157L91.6315 1.74597C91.7493 1.28643 91.8671 1.00828 91.9849 0.911535C92.0732 0.838975 92.1616 0.802695 92.2499 0.802695L95.5625 0.621295ZM100.818 11.3602C100.553 11.2634 100.127 11.2392 99.5376 11.2876C98.6837 11.4811 97.8151 11.9527 96.9317 12.7025C96.4606 13.0895 96.0189 13.5491 95.6067 14.0812C95.5478 14.1295 95.268 14.9156 94.7675 16.4394L93.9283 19.2329C93.3394 21.5065 93.5013 23.006 94.4141 23.7316C94.6791 23.9735 95.003 24.1307 95.3858 24.2033C96.3281 24.421 97.3145 24.1428 98.3451 23.3688C99.2873 22.7158 100.053 21.579 100.642 19.9585C100.848 19.4022 101.083 18.6887 101.349 17.818C101.967 15.7621 102.276 14.3472 102.276 13.5732C102.276 13.0653 102.202 12.6662 102.055 12.376C101.849 11.8923 101.437 11.5537 100.818 11.3602Z" fill="black"/>
<path d="M115.878 0.621295C118.175 0.476176 119.308 0.403616 119.279 0.403616C119.544 0.403616 119.721 0.488269 119.809 0.657574C119.838 0.754321 118.778 4.35813 116.629 11.469L113.272 22.4981C113.213 23.0544 113.213 23.5019 113.272 23.8405C113.331 23.9614 113.419 24.0582 113.537 24.1307C113.625 24.2033 113.758 24.2396 113.935 24.2396C114.141 24.2396 114.303 24.2154 114.421 24.167C114.98 23.8284 115.554 22.7279 116.143 20.8655C116.29 20.406 116.408 20.152 116.496 20.1036C116.555 20.0553 116.909 20.0311 117.556 20.0311C118.204 20.0311 118.572 20.0553 118.661 20.1036C118.72 20.152 118.749 20.2488 118.749 20.3939C118.749 20.539 118.675 20.8292 118.528 21.2646C117.409 24.3847 115.79 25.9568 113.67 25.981C113.464 25.981 113.257 25.9689 113.051 25.9447C111.226 25.7512 110.063 24.9652 109.562 23.5865C109.385 23.0544 109.356 22.486 109.474 21.8814L112.256 12.7025C114.141 6.51075 115.024 3.31811 114.906 3.12461C114.7 2.95531 114.067 2.85856 113.007 2.83437C112.3 2.83437 111.888 2.74972 111.77 2.58041L111.726 2.47157L111.947 1.74597C112.065 1.28643 112.183 1.00828 112.3 0.911535C112.389 0.838975 112.477 0.802695 112.565 0.802695L115.878 0.621295Z" fill="black"/>
<path d="M132.037 9.58245C132.95 9.4857 133.775 9.50989 134.511 9.65501C134.952 9.75175 135.409 9.88478 135.88 10.0541C136.94 10.4894 137.617 11.1304 137.912 11.9769C137.971 12.1462 138 12.4244 138 12.8114C138 13.2467 137.971 13.5491 137.912 13.7184C137.647 14.444 137.22 15.0728 136.631 15.6049C135.806 16.2822 134.57 16.8022 132.921 17.165C131.566 17.431 129.726 17.6003 127.4 17.6729H126.34L126.251 17.8906C125.957 19.2208 125.81 19.8618 125.81 19.8134C125.662 20.6841 125.648 21.4581 125.765 22.1353C126.089 23.4172 126.958 24.1186 128.371 24.2396C128.489 24.2637 128.622 24.2758 128.769 24.2758C130.3 24.2758 131.772 23.9251 133.186 23.2237C133.892 22.8851 134.614 22.4135 135.35 21.8088C135.88 21.3734 136.248 21.1799 136.454 21.2283L137.072 21.7362C137.485 22.1232 137.647 22.4014 137.558 22.5707C137.411 22.7884 136.911 23.2237 136.057 23.8768C134.643 24.7717 132.994 25.3884 131.11 25.727C130.374 25.8722 129.505 25.9447 128.504 25.9447C127.591 25.9447 126.826 25.8601 126.207 25.6908C125.324 25.4247 124.529 25.0135 123.822 24.4572C123.292 23.9977 122.88 23.5019 122.585 22.9698C122.026 22.0749 121.702 21.0106 121.614 19.7771C121.525 17.3101 122.394 15.1333 124.22 13.2467C124.779 12.6662 125.397 12.1704 126.075 11.7592C127.841 10.5741 129.829 9.8485 132.037 9.58245ZM133.495 11.3239C132.258 11.1304 131.036 11.3723 129.829 12.0495C128.769 12.6058 127.944 13.5007 127.356 14.7342C127.032 15.3872 126.87 15.7863 126.87 15.9314C126.87 16.0282 127.93 16.004 130.05 15.8589C130.256 15.8589 130.433 15.8468 130.58 15.8226C132.523 15.6533 133.863 15.2058 134.599 14.4802C134.923 14.1416 135.129 13.7426 135.217 13.283C135.365 12.4123 134.982 11.8076 134.069 11.469C133.892 11.3964 133.701 11.3481 133.495 11.3239Z" fill="black"/>
</svg>
